<svg viewBox="0 0 512 512" xmlns="http://www.w3.org/2000/svg"><g fill="none" fill-rule="evenodd"><path d="m256 0c141.394872 0 256 114.605128 256 256s-114.605128 256-256 256-256-114.605128-256-256 114.605128-256 256-256z" fill="#f0b90b"/><g fill="#fff" transform="translate(107.2 81.0051)"><path d="m33.4974359 174.994872.1846154 67.692307 57.5179487 33.846154v39.63077l-91.17948718-53.476924v-107.487179zm0-67.692308v39.446154l-33.4974359-19.815385v-39.4461535l33.4974359-19.8153846 33.6615385 19.8153846zm81.7230771-19.8153845 33.497436-19.8153846 33.661538 19.8153846-33.661538 19.8153845z" fill-rule="nonzero"/><path d="m57.7025641 228.65641v-39.630769l33.4974359 19.815385v39.446153zm57.5179489 62.071795 33.497436 19.815385 33.661538-19.815385v39.446154l-33.661538 19.815385-33.497436-19.815385zm115.2-203.2410255 33.497436-19.8153846 33.661538 19.8153846v39.4461535l-33.661538 19.815385v-39.446154zm33.497436 155.1999995.184615-67.692307 33.497436-19.815385v107.48718l-91.179487 53.476923v-39.630769z" fill-rule="nonzero"/><path d="m239.897436 228.65641-33.497436 19.630769v-39.446153l33.497436-19.815385z"/><path d="m239.897436 121.333333.184615 39.63077-57.682051 33.846153v67.856411l-33.497436 19.630769-33.497436-19.630769v-67.856411l-57.6820511-33.846153v-39.63077l33.6410257-19.815384 57.3333334 34.010256 57.682051-34.010256 33.661539 19.815384zm-182.1948719-67.6717945 91.0153849-53.6615385 91.179487 53.6615385-33.497436 19.8153846-57.682051-34.0102564-57.517949 34.0102564z" fill-rule="nonzero"/></g></g></svg>