<svg viewBox="0 0 512 512" xmlns="http://www.w3.org/2000/svg"><g fill="none"><path d="m504.3374 317.929539c-34.195642 137.142608-173.114438 220.605761-310.289048 186.406108-137.1186041-34.191653-220.5914945-173.102243-186.37985076-310.236851 34.17964036-137.1586085 173.09843576-220.6297614 310.23304176-186.43810835 137.166609 34.19165305 220.631499 173.11824335 186.435857 310.26885135z" fill="#f7931a"/><path d="m367.362301 218.656047c5.077022-34.149742-20.762389-52.507835-56.094317-64.754584l11.461158-46.260148-27.983397-7.01762-11.15829 45.041088c-7.356501-1.844631-14.912257-3.585001-22.420192-5.309331l11.237992-45.3378324-27.967457-7.0176196-11.469128 46.244108c-6.089238-1.395504-12.066893-2.774967-17.869204-4.226612l.031881-.144362-38.591742-9.696346-7.444174 30.075513s20.76239 4.788022 20.324028 5.084767c11.333635 2.847148 13.381978 10.394097 13.039259 16.377119l-13.055199 52.700318c.78108.200504 1.793296.489229 2.909125.938356-.932514-.232584-1.92879-.489228-2.956946-.737852l-18.299596 73.825358c-1.386816 3.464699-4.901677 8.661748-12.824063 6.688794.278957.409027-20.339968-5.108827-20.339968-5.108827l-13.892071 32.23293 36.415876 9.134935c6.774676 1.708289 13.413858 3.49678 19.949428 5.181009l-11.580711 46.789477 27.951516 7.01762 11.469128-46.292229c7.635459 2.085235 15.047751 4.010068 22.300639 5.822619l-11.429276 46.075685 27.983396 7.01762 11.580711-46.701256c47.71763 9.086815 83.599502 5.421612 98.703044-38.007428 12.170506-34.967796-.605736-55.13844-25.711888-68.291464 18.283655-4.242652 32.056173-16.345039 35.730438-41.343805zm-63.937 90.218518c-8.647675 34.967796-67.156965 16.064334-86.126058 11.324433l15.36656-61.987637c18.969092 4.763962 79.797712 14.195642 70.759498 50.663204zm8.655644-90.723786c-7.890505 31.807862-56.588469 15.647286-72.38542 11.685339l13.931922-56.221159c15.79695 3.961948 66.670782 11.356514 58.453498 44.53582z" fill="#fff"/></g></svg>