<svg viewBox="0 0 512 512" xmlns="http://www.w3.org/2000/svg"><g fill="none"><path d="m256.000482 512c-141.38716-.008639-255.99951766-114.621018-255.99951766-255.999565 0-9.810054.5578264-19.612174 1.65816981-29.360331 0-.375412.09385866-.79775.15643111-1.220089 14.12962724-117.17299 106.51143074-209.5168656 223.69649274-223.60465448l1.235806-.14077943c9.711293-1.11155464 19.477911-1.67371095 29.252618-1.67371095 141.38716.00863855 255.999518 114.62101786 255.999518 255.99956486 0 141.154838-114.836081 255.999565-255.999518 255.999565z"/><path d="m508.871378 256.000435c0 139.648232-113.214157 252.855491-252.870896 252.855491s-252.87089538-113.207259-252.87089538-252.855491c0-9.690076.5490952-19.372368 1.64252669-29.000562l.140788-1.188804c13.94093719-115.726042 105.16328369-206.9428311 220.89637569-220.88291895.396292-.06256864.78737-.10949511 1.173234-.14077943 71.646458-8.27085574 143.41575 14.44124108 197.257962 62.42421798 53.842211 47.9829774 84.630905 116.6709104 84.630905 188.7888464z" fill="#003893"/><path d="m74.9783972 437.011492c-48.1658437-47.902514-75.16437082-113.082552-74.9783972-181.011057.00520093-9.810054.55879074-19.612174 1.65913415-29.360331 0-.375412.09385866-.79775.15643111-1.220089l.12514489-1.063666 222.41375785-222.40020906 1.063731-.14077942c.422364 0 .829085-.10949511 1.251449-.14077943 9.737217-1.11451686 19.530034-1.67458109 29.330834-1.67458109 67.93387-.17668432 133.116263 26.8251613 181.022085 74.9893777l2.205679 2.2055443-362.0441701 362.037757z"/><path d="m434.816888 77.194922-357.6328121 357.611026c-47.4900092-47.377638-74.14067532-111.726013-74.05469767-178.805513 0-9.690076.54930359-19.372368 1.64273508-29.000562l.140788-1.188804 220.89637569-220.88291895c.396292-.06256864.78737-.10949511 1.173234-.14077943 76.696093-8.8219784 153.225269 17.84006998 207.834377 72.40755138z" fill="#f2f2f2"/><path d="m1.65913415 226.68703c0-.422338.09385866-.844676.15643111-1.267015 14.12962724-117.17299 106.51143074-209.5168656 223.69649274-223.60465448l1.235806-.14077943 8.728856-.87596087-234.64667076 234.63237678z"/><path d="m226.982511 4.78737062-222.21039769 222.21250238.140788-1.188804c13.94093719-115.726042 105.16328369-206.9428311 220.89637569-220.88291895.396292-.06256864.78737-.10949511 1.173234-.14077943z" fill="#ffd700"/><g fill="#000"><path d="m168.821422 252.872003c-28.14773-3.221094-50.771413-24.66987-55.486116-52.604578l-16.5816977-9.573001 16.1593337-9.385295c3.480945-28.143724 25.174968-50.582909 53.186579-55.013472l10.261881-17.753849 10.261881 17.753849c26.354798 4.192709 47.285687 24.397596 52.404423 50.586741l19.444388 11.215427-18.943808 10.949511c-3.945902 26.377057-23.934467 47.488693-50.057957 52.870496l-10.5591 18.285683zm7.493051-113.890555c-20.411843-.006313-38.81614 12.287218-46.625942 31.144764s-3.485978 40.562721 10.954092 54.988475c14.44007 14.425755 36.150583 18.729107 55.001999 10.902229 18.851416-7.826879 31.128558-26.241491 31.103281-46.652076-.025896-27.843712-22.588031-50.41147-50.43343-50.445961z"/><path d="m236.587381 197.076424 15.643111-8.994241-16.002903-9.228873c-4.572134-25.996665-25.396416-46.073968-51.544052-49.695138l-8.306492-14.375143-8.306492 14.375143c-27.772023 3.842183-49.319152 26.169722-52.169776 54.0593l-12.827352 7.414383 13.1715 7.602089c4.113232 27.72022 26.641189 49.038755 54.547529 51.619123l8.134418 14.077942 8.556782-14.828766c25.920829-4.855534 45.754281-25.869246 49.103727-52.025819zm-60.272908 45.847169c-21.671562.006325-41.21272-13.042645-49.510452-33.061522-8.297733-20.018877-3.717718-43.064743 11.604153-58.390156 15.321872-15.325412 38.367804-19.911877 58.390322-11.620497 20.022519 8.291381 33.07799 27.827538 33.07799 49.49778-.025861 29.571496-23.988724 53.539898-53.562013 53.574395z"/><path d="m164.957574 211.216935h-25.232339l12.608348-21.852095-12.608348-21.867737h25.232339l12.623991-21.867738 12.623991 21.867738h25.247981l-12.62399 21.867737 12.62399 21.852095h-25.247981l-12.623991 21.867738z"/></g><path d="m177.581565 151.886229 10.825033 18.739305h21.634423l-10.825033 18.739306 10.825033 18.723664h-21.634423l-10.825033 18.739306-10.80939-18.739306h-21.634423l10.80939-18.723664-10.80939-18.739306h21.634423z" fill="#d50032"/></g></svg>