<svg viewBox="0 0 512 512" xmlns="http://www.w3.org/2000/svg"><g fill="none"><path d="m211.626667 35.0450751c-30.72 0-40.106667-8.5475793-58.026667-13.6761269-20.48 8.5475793-39.253333 20.5141904-57.1733333 34.1903172 6.8266663-1.7095158 15.3600003-2.5642737 26.4533333-2.5642737 44.373333 0 44.373333 17.0951586 88.746667 17.0951586 44.373333 0 44.373333-17.0951586 88.746666-17.0951586 44.373334 0 44.373334 17.0951586 88.746667 17.0951586 17.066667 0 27.306667-2.5642738 36.693333-5.9833056-12.8-11.111853-26.453333-21.3689482-41.813333-29.9165275-40.106667-.8547579-40.96-17.0951586-83.626667-17.0951586-44.373333.8547579-44.373333 17.9499165-88.746666 17.9499165" fill="#fff"/><g fill="#2a5f9e" transform="translate(178.3467 .8548)"><path d="m210.773333 69.2353923c-44.373333 0-44.373333-17.0951586-88.746666-17.0951586-44.3733337 0-44.3733337 17.0951586-88.746667 17.0951586s-44.3733333 35.0450747 0 35.0450747 44.3733333-17.0951582 88.746667-17.0951582c44.373333 0 44.373333 17.0951582 88.746666 17.0951582 33.28 0 41.813334-9.4023368 62.293334-14.5308844-7.68-9.4023372-17.066667-17.9499165-25.6-26.4974958-9.386667 3.4190317-19.626667 5.9833055-36.693334 5.9833055"/><path d="m122.026667 17.0951586c42.666666 0 44.373333 15.3856427 84.48 17.0951586-37.546667-22.2237062-81.92-34.1903172-128.0000003-34.1903172-36.6933334 0-75.09333337 35.0450751-44.3733334 35.0450751 43.52-.8547579 43.52-17.9499165 87.8933337-17.9499165"/></g><path d="m389.12 105.135225c-44.373333 0-44.373333-17.0951582-88.746667-17.0951582-44.373333 0-44.373333 17.0951582-88.746666 17.0951582-44.373334 0-44.373334-17.0951582-88.746667-17.0951582-38.4 0-43.52 12.8213692-73.3866667 16.2404002-8.5333333 11.111854-15.36 23.078465-22.1866666 35.899834h6.8266666c44.3733334 0 44.3733334-17.095159 88.7466667-17.095159 44.373333 0 44.373333 17.095159 88.746667 17.095159 44.373333 0 44.373333-17.095159 88.746666-17.095159 44.373334 0 44.373334 17.095159 88.746667 17.095159 43.52 0 44.373333-16.240401 86.186667-17.095159-6.826667-11.966611-14.506667-22.223706-23.893334-32.4808014-20.48 5.1285475-29.013333 14.5308844-62.293333 14.5308844" fill="#fff"/><path d="m389.12 141.035058c-44.373333 0-44.373333-17.095158-88.746667-17.095158-44.373333 0-44.373333 17.095158-88.746666 17.095158-44.373334 0-44.373334 35.045076 0 35.045076 44.373333 0 44.373333-17.095159 88.746666-17.095159 44.373334 0 44.373334 17.095159 88.746667 17.095159s44.373333-17.095159 88.746667-17.095159c5.973333 0 11.093333 0 15.36.854758-5.12-12.821369-11.093334-24.78798-17.92-35.899833-41.813334.854758-42.666667 17.095158-86.186667 17.095158" fill="#2a5f9e"/><path d="m477.866667 158.984975c-44.373334 0-44.373334 17.095159-88.746667 17.095159s-44.373333-17.095159-88.746667-17.095159c-44.373333 0-44.373333 17.095159-88.746666 17.095159-44.373334 0-44.373334-17.095159-88.746667-17.095159-44.3733333 0-44.3733333 17.095159-88.7466667 17.095159-8.5333333 0-15.36-.854758-20.48-1.709516-3.4133333 10.257095-6.82666663 21.368948-8.5333333 32.480801 7.68 2.564274 17.0666667 4.27379 29.8666667 4.27379 44.3733333 0 44.3733333-17.095159 88.7466663-17.095159 44.373334 0 44.373334 17.095159 88.746667 17.095159s44.373333-17.095159 88.746667-17.095159c44.373333 0 44.373333 17.095159 88.746666 17.095159 44.373334 0 44.373334-17.095159 88.746667-17.095159 11.946667 0 20.48.854758 27.306667 2.564274-3.413334-12.821369-6.826667-24.78798-11.946667-36.754591-5.12 0-10.24-.854758-16.213333-.854758" fill="#fff"/><path d="m477.866667 194.884808c-44.373334 0-44.373334 17.095159-88.746667 17.095159s-44.373333-17.095159-88.746667-17.095159c-44.373333 0-44.373333 17.095159-88.746666 17.095159-44.373334 0-44.373334 35.045075 0 35.045075 44.373333 0 44.373333-17.095159 88.746666-17.095159 44.373334 0 44.373334 17.095159 88.746667 17.095159s44.373333-17.095159 88.746667-17.095159c15.36 0 24.746666 1.709516 33.28 4.27379-.853334-11.966611-2.56-24.78798-5.973334-35.899833-6.826666-2.564274-15.36-3.419032-27.306666-3.419032" fill="#2a5f9e"/><path d="m477.866667 229.929883c-44.373334 0-44.373334 17.095159-88.746667 17.095159s-44.373333-17.095159-88.746667-17.095159c-44.373333 0-44.373333 17.095159-88.746666 17.095159-44.373334 0-44.373334-17.095159-88.746667-17.095159-44.3733333 0-44.3733333 17.095159-88.7466667 17.095159-15.36 0-25.59999997-1.709516-34.1333333-4.27379v13.676127c0 6.838063 0 14.530885.85333333 21.368948 8.53333334 2.564274 17.91999997 5.128548 33.27999997 5.128548 44.3733334 0 44.3733334-17.095159 88.7466667-17.095159 44.373333 0 44.373333 17.095159 88.746667 17.095159 44.373333 0 44.373333-17.095159 88.746666-17.095159 44.373334 0 44.373334 17.095159 88.746667 17.095159s44.373333-17.095159 88.746667-17.095159c15.36 0 25.6 1.709516 34.133333 4.27379v-13.676127c0-6.838063 0-13.676127-.853333-21.368948-8.533334-2.564274-17.92-5.128548-33.28-5.128548" fill="#fff"/><path d="m477.866667 265.829716c-44.373334 0-44.373334 17.095159-88.746667 17.095159s-44.373333-17.095159-88.746667-17.095159c-44.373333 0-44.373333 17.095159-88.746666 17.095159-44.373334 0-44.373334-17.095159-88.746667-17.095159-44.3733333 0-44.3733333 17.095159-88.7466667 17.095159-15.36 0-24.74666663-1.709516-33.27999997-4.27379.85333334 11.966611 2.56 24.78798 5.97333334 35.899833 6.82666663 1.709516 15.36000003 3.419032 27.30666663 3.419032 44.3733334 0 44.3733334-17.095159 88.7466667-17.095159 44.373333 0 44.373333 17.095159 88.746667 17.095159 44.373333 0 44.373333-17.095159 88.746666-17.095159 44.373334 0 44.373334 17.095159 88.746667 17.095159s44.373333-17.095159 88.746667-17.095159c12.8 0 22.186666 1.709516 29.866666 3.419032 1.706667-11.111853 3.413334-22.223706 4.266667-33.335559-8.533333-2.564274-18.773333-5.128548-34.133333-5.128548" fill="#2a5f9e"/><path d="m477.866667 300.874791c-44.373334 0-44.373334 17.095159-88.746667 17.095159s-44.373333-17.095159-88.746667-17.095159c-44.373333 0-44.373333 17.095159-88.746666 17.095159-44.373334 0-44.373334-17.095159-88.746667-17.095159-44.3733333 0-44.3733333 17.095159-88.7466667 17.095159-11.9466666 0-20.48-.854758-27.30666663-2.564274 3.41333333 12.821369 6.82666663 24.78798 11.94666663 36.754591 4.2666667.854758 9.3866667.854758 15.36.854758 44.3733334 0 44.3733334-17.095159 88.7466667-17.095159 44.373333 0 44.373333 17.095159 88.746667 17.095159 44.373333 0 44.373333-17.095159 88.746666-17.095159 44.373334 0 44.373334 17.095159 88.746667 17.095159s44.373333-17.095159 88.746667-17.095159c8.533333 0 15.36.854758 20.48 1.709516 3.413333-10.257095 6.826666-21.368948 8.533333-32.480801-6.826667-2.564274-16.213333-4.27379-29.013333-4.27379" fill="#fff"/><path d="m477.866667 336.774624c-44.373334 0-44.373334 17.095159-88.746667 17.095159s-44.373333-17.095159-88.746667-17.095159c-44.373333 0-44.373333 17.095159-88.746666 17.095159-44.373334 0-44.373334-17.095159-88.746667-17.095159-44.3733333 0-44.3733333 17.095159-88.7466667 17.095159-5.9733333 0-11.0933333 0-15.36-.854758 5.12 12.821369 11.0933334 24.78798 17.92 35.899833 41.8133334-.854758 42.6666667-17.095159 86.1866667-17.095159 44.373333 0 44.373333 17.095159 88.746667 17.095159 44.373333 0 44.373333-17.095159 88.746666-17.095159 44.373334 0 44.373334 17.095159 88.746667 17.095159s44.373333-17.095159 88.746667-17.095159h6.826666c5.12-11.111853 10.24-22.223706 14.506667-33.335559-5.973333-1.709516-12.8-1.709516-21.333333-1.709516" fill="#2a5f9e"/><path d="m477.866667 371.819699c-44.373334 0-44.373334 17.095159-88.746667 17.095159s-44.373333-17.095159-88.746667-17.095159c-44.373333 0-44.373333 17.095159-88.746666 17.095159-44.373334 0-44.373334-17.095159-88.746667-17.095159-43.52 0-44.3733333 16.240401-86.1866667 17.095159 6.8266667 11.966611 14.5066667 22.223706 23.8933334 32.480801 21.3333333-5.128547 29.0133333-14.530884 62.2933333-14.530884 44.373333 0 44.373333 17.095158 88.746667 17.095158 44.373333 0 44.373333-17.095158 88.746666-17.095158 44.373334 0 44.373334 17.095158 88.746667 17.095158 38.4 0 43.52-12.821369 73.386667-16.2404 8.533333-11.111854 15.36-23.078465 22.186666-35.899834z" fill="#fff"/><path d="m389.12 424.814691c-44.373333 0-44.373333-17.095158-88.746667-17.095158-44.373333 0-44.373333 17.095158-88.746666 17.095158-44.373334 0-44.373334-17.095158-88.746667-17.095158-33.28 0-41.8133333 9.402337-62.2933333 14.530884 7.68 9.402338 17.0666666 18.804675 25.6 26.497496 9.3866666-3.419032 19.6266663-5.983305 36.6933333-5.983305 44.373333 0 44.373333 17.095158 88.746667 17.095158 44.373333 0 44.373333-17.095158 88.746666-17.095158 44.373334 0 44.373334 17.095158 88.746667 17.095158 11.093333 0 19.626667-.854758 26.453333-2.564274 17.92-14.530884 33.28-30.771285 46.933334-48.721202-29.866667 2.564274-34.986667 16.240401-73.386667 16.240401" fill="#2a5f9e"/><path d="m389.12 459.859766c-44.373333 0-44.373333-17.095158-88.746667-17.095158-44.373333 0-44.373333 17.095158-88.746666 17.095158-44.373334 0-44.373334-17.095158-88.746667-17.095158-17.066667 0-27.3066667 2.564273-36.6933333 5.983305 12.8 11.111853 26.4533333 21.368948 40.9600003 29.916528 39.253333.854758 40.96 17.095158 83.626666 17.095158 44.373334 0 44.373334-17.095158 88.746667-17.095158 30.72 0 40.106667 8.547579 58.026667 13.676127 20.48-8.54758 39.253333-20.514191 57.173333-34.190318-6.826667.854758-14.506667 1.709516-25.6 1.709516" fill="#fff"/><path d="m211.626667 494.904841c-42.666667 0-44.373334-15.385642-84.48-17.095158 37.546666 22.223706 81.92 34.190317 128 34.190317 36.693333 0 70.826666-7.692821 102.4-21.368948-17.92-5.128548-27.306667-13.676127-58.026667-13.676127-43.52.854758-43.52 17.949916-87.893333 17.949916" fill="#2a5f9e"/><path d="m447.146667 193.175292 33.28.854758c-8.533334-15.385643-36.693334-16.240401-59.733334-11.966611 14.506667-4.27379 31.573334-9.402337 34.986667-10.257095-6.826667-5.128548-36.693333-23.933222-74.24 13.676127h-.853333c-37.546667-37.609349-67.413334-18.804675-74.24-13.676127 2.56.854758 20.48 5.128547 34.986666 10.257095-23.04-3.419032-51.2-2.564274-59.733333 11.966611l33.28-.854758c-13.653333 6.838064-21.333333 7.692822-23.893333 23.933222.853333 0 17.92-5.128547 35.84-9.402337-9.386667 5.128548-18.773334 11.111853-22.186667 17.095159 16.213333.854757 29.866667-3.419032 40.96-8.54758-6.826667 8.54758-10.24 17.949917-10.24 23.078464 7.68-1.709515 16.213333-8.547579 23.04-15.385642-4.266667 15.385642-3.413333 31.626043.853333 37.609349 6.826667-5.128548 11.093334-13.676127 14.506667-23.078465v9.402338h14.506667l-.853334-12.821369c3.413334 11.111853 8.533334 21.368948 16.213334 27.352253 4.266666-6.838063 5.12-22.223706.853333-37.609348 6.826667 6.838063 14.506667 13.676126 23.04 15.385642.853333-5.128547-3.413333-14.530885-10.24-23.078464 10.24 5.128548 24.746667 9.402337 40.96 8.547579-4.266667-5.983305-12.8-11.966611-22.186667-17.095158 17.92 5.128547 34.986667 9.402337 35.84 9.402337-2.56-17.095158-10.24-17.949916-24.746666-24.78798" fill="#75a843"/><path d="m370.346667 223.946578h23.04v186.337228h-23.04z" fill="#c94747"/><path d="m326.826667 342.75793 18.773333 19.659432h69.12l18.773333-19.659432 1.706667-29.06177-45.226667-13.676127 4.266667-3.419031-14.506667-8.54758-14.506666 8.54758 4.266666 3.419031-40.96 10.257096zm98.133333-23.933222-11.093333 17.095158-11.093334-4.273789-13.653333-2.564274v-24.78798zm-88.746667 0 35.84-14.530885v24.78798l-13.653333 2.564274-11.093333 4.273789z" fill="#f1bf31"/><path d="m76.8 76.9282137h179.2v179.4991653h-179.2z" fill="#2a5f9e"/><g fill="#fff" transform="translate(0 52.1402)"><path d="m144.213333 0v50.4307179h-62.293333l122.88 153.8564271h51.2v-64.106844z"/><path d="m76.8 92.3138564h-51.2c-16.21333333 34.1903176-25.6 71.7996666-25.6 111.9732886h102.4v-154.7111851h-25.6z"/></g><path d="m256 214.54424-110.933333-137.6160263h-51.2000003l145.0666663 179.4991653h17.066667z" fill="#ed4c5c"/><path d="m144.213333 25.6427379v51.2854758h-67.413333v25.6427383h179.2v-102.570952c-40.106667 0-77.653333 9.40233723-111.786667 25.6427379z" fill="#fff"/><path d="m256 25.6427379h-111.786667c-51.1999997 24.78798-93.8666663 67.5258765-118.613333 118.8113521v111.973289h51.2v-179.4991653h179.2z" fill="#ed4c5c"/></g></svg>