<svg viewBox="0 0 512 512" xmlns="http://www.w3.org/2000/svg"><g fill="none"><circle cx="256" cy="256" fill="#049055" r="256"/><ellipse cx="256" cy="255" fill="#fff" rx="180" ry="183"/><path d="m245.195266 142h7.786983l12.236686 6.688525 5.56213 4.459016v6.688525l7.786982 1.114754 1.112426 1.114754h10.011835l6.674556 2.229508v-5.573771l5.56213-3.344262 4.449704 1.114754 4.449704 6.688525 4.449705 2.229508 10.011834 1.114754 1.112426 1.114754 2.224852 24.52459 13.349112 21.180328 5.562131 10.032787 12.236686 1.114754 2.224852 1.114754v12.262295l-5.56213 7.803279-8.899408 5.573771-3.337279 4.459016-4.449704 13.377049-5.56213 4.459017-3.337278 2.229508-5.56213 13.377049-6.674556 10.032787-1.112426 2.229508-2.224852 14.491803-7.786983 6.688525-6.674556 4.459016-6.674556 8.918033-14.461539 8.918033-1.112426 1.114754h-6.674556l-2.224852-6.688525-3.337278-14.491803-4.449704-8.918033-6.674556-7.803278-2.224852-4.459017v-7.803278l6.674556-8.918033 3.337278-6.688525-2.224852-8.918033 1.112426-16.721311-11.124261-1.114754-2.224852-5.573771h-11.12426l-2.224852 2.229509-24.473373 2.229508-7.786982 1.114754-11.12426-8.918033-5.562131-5.57377-3.337278-7.803279-4.449704-5.573771-3.337278-1.114754-1.112426-13.377049 3.337278-5.57377v-12.262295l-2.224852-5.573771 4.449704-2.229508 5.56213-12.262295 5.562131-2.229508 10.011834-2.229509 7.786982-10.032787 5.56213-4.459016 2.224852-5.57377 11.124261-1.114755h7.786982z" fill="#fdfe04"/><path d="m340.155405 106 6.68919 2.226804 17.837837 13.360825 14.493244 13.360825 13.378378 15.587628 10.033784 15.587629 10.033784 18.927835 5.574324 14.474227 4.459459 15.587629 3.344595 18.927835v43.422681l-4.459459 24.494845-5.574325 17.814433-10.033784 22.268041-11.148648 17.814433-8.918919 11.134021-10.033784 11.13402-12.263513 11.134021-14.493244 10.020619-17.837838 10.020618-25.641891 10.020619-32.331081 6.680412h-12.263514v-52.329897l25.641892-5.56701 21.182432-8.907217 15.608108-8.907216 14.493244-12.247423 11.148648-12.247423 8.918919-14.474226 7.804054-16.701031 3.344595-10.020619 3.344594-18.927835v-26.721649l-2.229729-13.360825-6.689189-20.041237-10.033784-18.927835-12.263514-15.587629-10.033784-10.020619-17.837837-13.360824 2.229729-4.453609 4.45946 1.113402 14.493243 10.020619 14.493243 14.474227 7.804054 10.020618v2.226804l3.344595-2.226804-1.114865-5.56701-11.148649-12.247423-5.574324-5.56701-12.263513-11.134021-11.148649-7.793814 2.22973-4.453608 5.574324 2.226804 12.263514 10.020618 11.148648 10.020619 11.148649 12.247423 4.459459 6.680412 4.45946-2.226804-3.344595-5.56701-12.263513-14.474227-8.918919-8.907217-18.952703-14.474227v-4.453608l2.22973-1.113402 13.378378 8.907217 15.608108 13.360824 13.378379 15.587629 4.459459 6.680413 5.574324-2.226805-4.459459-7.793814-8.918919-11.134021-10.033784-11.13402-12.263513-10.020619-13.378379-8.907216 2.22973-4.453609 8.918919 4.453609 14.493243 11.13402 14.493243 13.360825 12.263514 14.474227 2.22973 5.56701 4.459459-2.226804-2.22973-4.453608-11.148648-14.474227-16.722973-16.701031-18.952703-13.360825-4.459459-2.226804z" fill="#6c320f"/><path d="m169.614865 106h3.344594l1.114865 4.453608-15.608108 10.020619-14.493243 12.247422-10.033784 10.020619-12.263513 15.587629v4.453608h3.344594l8.918919-12.247423 21.182433-21.154639 18.952702-13.360824 4.45946-1.113403 1.114865 4.453609-15.608108 11.13402-11.148649 10.020619-11.148649 11.134021-10.033784 14.474226 1.114865 3.340207 4.45946 2.226804 2.22973-5.567011 10.033783-12.247422 14.493244-14.474227 16.722973-12.247423 4.459459-1.113402 1.114865 4.453608-12.263514 10.020619-8.918919 7.793814-10.033783 8.907217-10.033784 12.247423-3.344595 5.56701 4.45946 2.226804 8.918919-11.134021 10.033783-11.13402 14.493244-12.247423 10.033783-6.680412 3.344595 2.226804-2.22973 4.453608-12.263513 8.907217-11.148649 10.020618-8.918919 8.907217-6.689189 8.907216v3.340206l3.344595 1.113402 11.148648-14.474226 10.033784-10.020619 16.722973-12.247423 4.459459 1.113402 1.114865 4.453609-14.493243 10.020618-13.378378 12.247423-11.148649 14.474227-8.918919 15.587629-6.689189 17.814432-4.459459 21.15464v25.608247l4.459459 22.268041 8.918919 21.15464 11.148649 17.814432 12.263513 13.360825 14.493243 11.134021 15.608108 8.907216 15.608109 6.680413 16.722972 4.453608 12.263514 2.226804v52.329897l-18.952703-1.113402-28.986486-6.680412-22.297297-8.907217-17.837838-10.020618-13.378379-10.020619-15.608108-13.360825-13.378378-15.587629-11.148649-16.701031-11.1486485-23.381443-4.4594594-11.13402-4.4594595-17.814433-3.3445946-20.041238v-38.969072l5.5743243-27.835051 6.6891892-20.041237 11.1486485-22.268042 10.033784-14.474226 8.918919-11.134021 8.918919-10.020619 8.918919-7.793814 14.493243-11.134021z" fill="#6c320f"/><path d="m246.054054 144h6.702703l14.522522 8.938547 1.117117 8.938548 8.936937 1.117318 3.351352 2.234637h8.936937l2.234234 1.117319h6.702703l2.234234-7.821229h4.468468l3.351352 5.586592 5.585585 3.351955 8.936937 1.117319 1.117117 1.117318 2.234234 23.463687 12.288289 18.994414 6.702702 12.290502 1.117118 1.117319 13.405405 1.117318v10.055866l-5.585586 7.821229-6.702702 3.351956-5.585586 6.70391-4.468468 13.407821-8.936937 6.703911-4.468469 11.173184-7.81982 12.290503-2.234234 14.52514-5.585585 6.70391-8.936937 5.586593-6.702703 8.938547-14.522523 8.938548-5.585585 1.117318-2.234234-14.52514-5.585586-13.407821v-4.469274l8.936937-7.821229 10.054054-12.290502 7.81982-13.407822 6.702703-20.111732 2.234234-8.938547v-25.698324l-4.468469-17.877095-8.936937-17.877095-12.288288-14.52514-14.522522-11.173184-15.63964-7.821229-8.936937-3.351955 4.468468-3.351956z" fill="#fafc04"/><path d="m245.195266 142h7.786983l12.236686 6.688525 5.56213 4.459016v6.688525l7.786982 1.114754 1.112426 1.114754h10.011835l6.674556 2.229508v-5.573771l5.56213-3.344262 4.449704 1.114754 4.449704 6.688525 4.449705 2.229508 10.011834 1.114754 1.112426 1.114754 2.224852 24.52459 13.349112 21.180328 5.562131 10.032787 12.236686 1.114754 2.224852 1.114754v12.262295l-5.56213 7.803279-8.899408 5.573771-3.337279 4.459016-4.449704 13.377049-5.56213 4.459017-3.337278 2.229508-5.56213 13.377049-6.674556 10.032787-1.112426 2.229508-2.224852 14.491803-7.786983 6.688525-6.674556 4.459016-6.674556 8.918033-14.461539 8.918033-1.112426 1.114754h-6.674556l-2.224852-6.688525-3.337278-14.491803-4.449704-8.918033-6.674556-7.803278-2.224852-4.459017v-7.803278l6.674556-8.918033 3.337278-6.688525-2.224852-8.918033 1.112426-16.721311-11.124261-1.114754-2.224852-5.573771h-11.12426l-2.224852 2.229509-24.473373 2.229508-7.786982 1.114754-11.12426-8.918033-5.562131-5.57377-3.337278-7.803279-4.449704-5.573771-3.337278-1.114754-1.112426-13.377049 3.337278-5.57377v-12.262295l-2.224852-5.573771 4.449704-2.229508 5.56213-12.262295 5.562131-2.229508 10.011834-2.229509 7.786982-10.032787 5.56213-4.459016 2.224852-5.57377 11.124261-1.114755h7.786982zm1.112426 2.229508-10.011834 5.573771h-12.236686v2.229508l-5.562131-1.114754-2.224852 6.688524-6.674556 2.229509-7.786982 11.147541-14.461539 3.344262-4.449704 10.032787-4.449704 4.459016 1.112426 5.573771v14.491803l6.674556 2.229508 3.337278 3.344262 6.674557-1.114754 17.798816-1.114754v-2.229508h-2.224852v-14.491803l-1.112426-15.606558 6.674556 2.229509 14.461539 11.147541 7.786982 5.57377 1.112426 2.229508h7.786982l11.124261-10.032787 6.674556-5.57377h12.236686l1.112426 7.803279v14.491803l-3.337278 4.459016 1.112426 10.032787 1.112426 4.459016-5.56213 8.918033-2.224852 7.803279-5.56213-1.114754-3.337278 2.229508v6.688525l4.449704 2.229508-3.337278 12.262295 1.112426 7.803279 1.112426 7.803278-7.786982 13.377049-2.224852 2.229509v6.688524l7.786982 10.032787 3.337278 4.459017 4.449704 11.147541 2.224852 14.491803 5.56213-1.114754 14.461539-8.918033 6.674556-8.918033 11.12426-7.803279 3.337278-4.459016 2.224853-14.491803 8.899408-13.377049 4.449704-11.147541 7.786982-5.573771 4.449704-13.377049 6.674557-7.803279 6.674556-3.344262 4.449704-6.688525v-10.032787l-13.349112-1.114754-3.337279-5.57377-10.011834-16.721312-6.674556-10.032786-2.224852-23.409837-1.112426-1.114754-11.124261-2.229508-5.56213-5.57377-1.112426-2.229509-5.56213 1.114755-1.112426 6.688524h-6.674556l-5.56213-1.114754-7.786983-1.114754-1.112426-1.114754-8.899408-1.114754-1.112426-8.918033-14.461538-8.918033z" fill="#038f54"/><path d="m246.065789 145h6.710527l14.539473 8.899408 1.118422 8.899409 8.947368 1.112426 3.355263 2.224852h8.947369l6.710526 2.224852 12.302631 20.023668 5.592106 12.236687 5.592105 22.24852 1.118421 8.899409v20.023668l-5.592105 22.248521-5.592106 13.349113-8.947368 15.573964-12.302632 15.573965-13.421052 13.349112-3.355263 1.112426-6.710527-16.686391v-4.449704l8.947369-7.786982 10.065789-12.236686 7.828948-13.349113 6.710526-20.023668 2.236842-8.899409v-25.585798l-4.473684-17.798817-8.947369-17.798817-12.302631-14.461538-14.539474-11.12426-15.657895-7.786983-8.947368-3.337278 4.473684-3.337278z" fill="#fefe02"/><path d="m218.956044 151 13.318681 2.245614 17.758242 6.736842 12.208791 6.736842 15.538462 13.473684 2.21978 5.614036h-13.318681l-9.989011 8.982456-7.769231 6.736842h-7.769231l-5.54945-5.614035-14.428572-11.22807-4.43956-3.368422-5.549451-1.122807 1.10989 15.719299v14.596491h2.219781v2.245614l-17.758242 1.122807-6.659341 1.122807-4.43956-4.491228-5.549451-1.122807v-14.596491l-1.10989-5.614035 5.549451-5.614035 3.32967-8.982457 14.428571-3.368421 7.769231-11.22807 6.659341-2.245614z" fill="#fbfd04"/><path d="m247.705882 78 4.470589 2.244898 5.588235 4.4897959 2.235294-6.7346939 3.352941 3.3673469 2.235294 3.367347 7.82353-5.6122449 2.235294 7.8571428 8.941176-4.4897959-1.117647 8.9795919 2.235294-1.122449h7.82353l-3.352941 10.1020412 7.823529 1.122449-4.470588 5.612244h-2.235294l5.588235 6.734694-5.588235 2.244898h-3.352942v11.22449l-8.941176-2.244898-2.235294 6.734694-5.588235-2.244898-3.352942-1.122449-2.235294 3.367347-4.470588-1.122449-4.470588-3.367347-2.235294 5.612245h-3.352941l-5.588236-8.979592-5.588235 3.367347h-2.235294l-1.117647-10.102041-14.529412 2.244898 3.352941-5.612245 3.352941-5.612245-6.705882-4.489795v-2.244898l8.941176-4.4897963-4.470588-7.8571429 1.117647-2.244898 10.058824 2.244898 1.117647-8.9795918 7.823529 4.4897959z" fill="#f8f5f5"/><path d="m378.363636 69h6.727273l12.333333 7.7924528 11.212122 10.018868 2.242424 3.3396226 1.121212 6.6792453v18.9245283l-3.363636 10.018868-3.363637 2.226415h-5.60606l-11.212122-8.90566-7.848484-7.792453-5.606061-8.905661v-30.0566034z" fill="#f4f8f6"/><path d="m207.465116 445h18.976744l13.395349 3.352941 8.930233 5.588235 2.232558 4.470589v13.411764l-3.348837 6.705883-6.697675 4.470588h-16.744186l-14.511628-4.470588-6.697674-5.588236v-23.470588z" fill="#f4f9f6"/><path d="m229.435897 26h23.153847l4.410256 4.4571429v22.2857142l-5.512821 5.5714286-6.615384 2.2285714-23.153846 3.3428572-7.717949 1.1142857v-34.5428571l7.717949-3.3428572z" fill="#f1f7f4"/><path d="m245.125 142h7.791667l12.244047 6.688525 5.565476 4.459016v6.688525l7.791667 1.114754 1.113095 1.114754h10.017858l6.678571 2.229508v-5.573771l5.565476-3.344262 4.452381 1.114754 4.452381 6.688525 4.452381 2.229508 10.017857 1.114754 1.113095 1.114754 2.226191 24.52459 13.357143 21.180328 5.565476 10.032787 12.244048 1.114754 2.22619 1.114754v12.262295l-5.565476 7.803279-8.904762 5.573771-3.339286 4.459016-4.452381 13.377049-5.565476 4.459017-3.339286 2.229508-5.565476 13.377049-6.678571 10.032787-1.113096 2.229508-2.22619 14.491803-7.791667 6.688525-6.678571 4.459016-6.678572 8.918033-14.470238 8.918033-1.113095 1.114754h-6.678571l-2.226191-6.688525-3.339285-14.491803-4.452381-8.918033-6.678572-7.803278-2.22619-4.459017v-7.803278l6.678571-8.918033 3.339286-6.688525-2.226191-8.918033 1.113096-16.721311-11.130953-1.114754v-1.114754h10.017857v-6.688525h1.113096l2.22619 6.688525 2.226191 1.114754-1.113096 10.032787-1.113095 7.803278 2.226191 5.573771-1.113096 6.688524-7.791666 12.262296-1.113096 1.114754v6.688524l7.791667 10.032787 3.339286 4.459017 4.452381 11.147541 1.113095 14.491803 5.565476-2.229508 14.470238-8.918033 6.678572-8.918033 11.130952-7.803279 2.226191-3.344262 2.22619-14.491803 8.904762-13.377049 4.452381-11.147541 7.791667-5.573771 4.45238-13.377049 7.791667-8.918033 5.565476-2.229508 4.452381-6.688525 1.113096-10.032787h-13.357143l-3.339286-3.344262-6.678571-13.377049-11.130953-16.721311-2.22619-23.409837-11.130953-2.229508-5.565476-5.57377-1.113095-3.344263-4.452381 1.114755-2.226191 7.803278h-6.678571l-5.565476-1.114754-7.791667-1.114754-1.113095-1.114754-8.904762-1.114754-1.113095-1.114754v-8.918033l-5.565476-2.229508-8.904762-5.573771h-6.678572l-10.017857 5.573771h-7.791667l-4.452381-1.114754v2.229508l-5.565476-1.114754-1.113095 4.459016-3.339286 3.344262-4.452381 1.114755-2.22619 5.57377-5.565476 6.688525-14.470238 3.344262-3.339286 8.918033-3.339286 4.459016h-2.22619l2.22619 5.573771-1.113095 10.032787h-1.113095l-1.113096-11.147541-2.22619-5.573771 4.452381-2.229508 5.565476-12.262295 5.565476-2.229508 10.017857-2.229509 7.791667-10.032787 5.565476-4.459016 2.226191-5.57377 11.130952-1.114755h7.791667z" fill="#21995d"/><path d="m347.658537 429h8.975609l3.365854 3.357143v29.095238l-8.97561 2.238095v-10.071428l-24.682927 8.952381h-3.365853v13.428571h-8.97561v-29.095238l5.609756-6.714286 14.585366-5.595238z" fill="#f4f9f6"/><path d="m297.02439 447h8.97561v32.411765l-2.243902 2.235294-4.487805 1.117647h-10.097561l-6.731708-12.294118-1.121951-1.117647-5.609756 14.529412-1.121951 1.117647h-14.585366v-33.529412h8.97561l1.121951 16.764706 6.731707-16.764706 2.243903-2.235294h7.853658l7.853659 16.764706z" fill="#f5f9f7"/><path d="m109.129032 381 4.516129 2.222222 23.709678 23.333334 5.645161 4.444444v7.777778l-5.645161-1.111111-14.67742-12.222223-5.645161-3.333333 1.129032 7.777778 12.419355 7.777778 9.032258 7.777777v8.888889l-5.645161-1.111111-11.290323-8.888889-5.645161-3.333333 1.129032 4.444444 21.451613 15.555556 3.387097 2.222222v7.777778h-4.516129l-14.677419-10-10.161291-7.777778-5.645161-4.444444v-46.666667z" fill="#f1f7f4"/><path d="m327.216216 42h13.297298l17.729729 8.8333333 7.756757 7.7291667v36.4375l-7.756757-1.1041667-1.108108-17.6666666-24.378378-11.0416667-1.108108 12.1458333-6.648649-2.2083333v-30.9166667z" fill="#f2f8f5"/><path d="m193.294118 33h5.588235l-1.117647 7.7446809-8.941177 4.4255319-13.411764 4.4255319h-3.352941l1.117647 5.5319149 19-6.6382979 4.470588 1.106383v5.5319149l-13.411765 5.5319149-10.058823 3.3191489v5.5319149l20.117647-7.7446809h5.588235l1.117647 1.106383v5.5319149l-11.176471 5.5319149-17.882353 7.7446809-4.470588 3.3191489h-3.352941l-1.117647-2.212766v-34.2978723l4.470588-5.5319149 16.764706-6.6382979z" fill="#f0f6f3"/><path d="m398.375 390 2.25 2.237288v10.067797l-13.5 10.067796-3.375 3.355933-1.125 4.474576 12.375-7.830509h5.625l3.375 3.355933v14.542372l-10.125 11.186441-7.875 6.711865-15.75 7.830508h-2.25v-10.067797l13.5-6.711864 9-7.830508 1.125-4.474577-5.625 2.237288-7.875 4.474577-5.625-1.118644-2.25-5.593221v-7.830508l3.375-6.711865 6.75-7.830508 14.625-11.186441z" fill="#f3f8f6"/><path d="m147.555556 53 4.444444 1.1147541v5.5737705l-22.222222 15.6065574-6.666667 4.4590164v23.4098356l21.111111-15.606557 5.555556-2.2295081 1.111111 1.1147541v6.6885245l-11.111111 8.9180325-12.222222 10.032787-8.888889 8.918033h-5.555556l-1.111111-1.114754v-40.1311476l5.555556-6.6885246z" fill="#f1f7f4"/><path d="m271.114286 27h12.257143l17.828571 3.3243243 7.8 2.2162162v6.6486487l-1.114286 1.1081081-10.028571-1.1081081-17.828572-4.4324324 1.114286 6.6486486 24.514286 4.4324324 1.114286 1.1081081v6.6486487l-13.371429-1.1081081-2.228571-1.1081081-11.142858-1.1081081 1.114286 4.4324324 26.742857 5.5405405 1.114286 1.1081082v6.6486486l-17.828571-2.2162162-21.171429-4.4324324v-33.2432433z" fill="#f3f8f5"/><path d="m218.333333 151 13.454546 2.242424 17.939394 6.727273 12.333333 6.727273 15.69697 13.454545 2.242424 5.606061h-13.454545l-3.363637 2.242424-11.212121-8.969697-16.818182-7.848485-16.818182-3.363636-12.333333-1.121212 3.363636-6.727273 6.727273-2.242424z" fill="#fdfe03"/><path d="m158.352941 423 4.470588 1.111111 21.235295 11.111111 7.823529 3.333334 1.117647 1.111111v8.888889l-6.705882-1.111112-15.647059-7.777777-5.588235 1.111111v10l4.470588 4.444444 22.352941 7.777778v8.888889l-3.352941 1.111111-31.294118-12.222222-2.235294-3.333334v-31.111111z" fill="#f2f7f5"/><path d="m224 150 14.485714 1.115646 14.485715 5.578232 12.257142 7.809523 11.142858 8.92517 8.914285 10.040817 8.914286 14.503401 4.457143 11.156463 3.342857 14.503401v25.659864l-6.685714 23.428571-7.8 15.619048-11.142857 14.503401-8.914286 8.92517-4.457143 2.231293-1.114286-4.462585 11.142857-10.040816 11.142858-15.619048 7.8-16.734694 3.342857-13.387755 1.114285-5.578231v-24.544218l-4.457142-17.85034-8.914286-16.734694-10.028572-12.272109-14.485714-11.156462-16.714286-7.809524-17.828571-5.578231z" fill="#fefedf"/><path d="m277.4 212 2.24 1.113924 3.36 12.253165v25.620253l-3.36 14.481012-8.96 17.822785-8.96 11.139241-6.72 5.56962 2.24-4.455696 7.84-13.367089-1.12-7.797468-1.12-7.797469 3.36-12.253164-4.48-2.227848v-6.683544l3.36-2.227849 5.6 1.113924 3.36-10.025316 4.48-6.683544-1.12-4.455696-1.12-10.025317z" fill="#fbfc03"/><path d="m298.5 167 5.520833 5.584416 8.833334 15.636363 6.625 15.636364 4.416666 17.87013 1.104167 8.935065v15.636363l-3.3125 21.22078-4.416667 13.402597-8.833333 17.87013-9.9375 14.51948-12.145833 13.402598-8.833334 8.935065-5.520833 3.350649v-5.584416l11.041667-10.051948 11.041666-12.285714 7.729167-11.168831 9.9375-18.987013 5.520833-18.987013 2.208334-10.051948v-20.103896l-3.3125-18.987013-4.416667-14.519481-8.833333-17.87013-6.625-10.051948v-2.233766z" fill="#fefedc"/><path d="m247.705882 78 4.470589 2.244898 5.588235 4.4897959 2.235294-6.7346939 3.352941 3.3673469 2.235294 3.367347 7.82353-5.6122449 2.235294 7.8571428 8.941176-4.4897959-1.117647 8.9795919 2.235294-1.122449h7.82353l-3.352941 10.1020412 7.823529 1.122449-4.470588 5.612244h-2.235294l5.588235 6.734694-5.588235 2.244898h-3.352942v11.22449l-8.941176-2.244898-2.235294 6.734694-5.588235-2.244898-3.352942-1.122449-2.235294 3.367347-4.470588-1.122449-4.470588-3.367347-2.235294 5.612245h-3.352941l-5.588236-8.979592-5.588235 3.367347h-2.235294l-1.117647-10.102041-14.529412 2.244898 3.352941-5.612245 3.352941-5.612245-6.705882-4.489795v-2.244898l8.941176-4.4897963-4.470588-7.8571429 1.117647-2.244898 10.058824 2.244898 1.117647-8.9795918 7.823529 4.4897959zm2.235294 4.4897959-1.117647 1.122449v5.6122449l-7.823529-4.4897959-1.117647 7.8571428-7.823529-1.1224489 2.235294 6.7346938-7.82353 4.4897964 3.352941 3.367346 2.235295 1.122449-2.235295 4.489796-2.235294 4.489796 11.176471-1.122449v7.857143l8.941176-1.122449 4.470589 7.857143 4.470588-4.489796 4.470588 2.244898h4.470588l1.117647-2.244898 5.588236 2.244898h3.352941l1.117647-6.734694 5.588235 2.244898h3.352941l-1.117647-7.857143 6.705883-2.244898-3.352942-4.489796 4.470589-5.612244-5.588236-1.122449 2.235295-7.8571433h-8.941177l1.117647-5.6122449-6.705882 2.244898-2.235294 1.122449v-6.7346939l-4.470589 2.2448979-3.352941 2.244898-3.352941-5.6122449-2.235294 4.4897959-5.588235-3.3673469z" fill="#a73a4c"/><path d="m204.967742 188h5.645161l1.129032 7.875v14.625h2.258065v2.25l-18.064516 1.125-6.774194 1.125-4.516129-4.5-5.645161-1.125 1.129032-11.25 15.806452-7.875z" fill="#fbfc03"/><path d="m215.346154 453h12.269231l10.038461 4.421053 3.346154 3.315789v7.736842l-3.346154 5.526316h-14.5l-7.807692-3.315789-3.346154-4.421053v-11.052632z" fill="#069055"/><path d="m250.7 93 9.9 1.1052632 12.1 6.6315788-4.4 2.210526h-12.1v2.210527h18.7l1.1 4.421052-3.3 3.31579-2.2 1.105263h-23.1l-4.4-5.526316 1.1-8.8421051 5.5-5.5263157z" fill="#f4faf8"/><path d="m385.111111 80 4.444445 1.125 10 7.875 4.444444 6.75v15.75l-2.222222 4.5-4.444445-1.125-7.777777-6.75-5.555556-7.875v-19.125z" fill="#089056"/><path d="m332.565217 296h6.782609l5.652174 1.129032v5.645162l-5.652174 9.032258-3.391304 2.258064-1.130435 12.419355-7.913044 4.516129-5.652173-1.129032-2.26087-2.258065 2.26087-10.16129 2.260869-4.516129 2.26087-7.903226 3.391304-4.516129 1.130435-3.387097z" fill="#f3f9f7"/><path d="m231.47619 34h14.238096l3.285714 3.3529412v11.1764706l-3.285714 3.3529411-2.190476 1.1176471h-17.52381v-17.8823529z" fill="#058f54"/><path d="m277.4 212 2.24 1.113924 3.36 12.253165v25.620253l-3.36 14.481012-8.96 17.822785-8.96 11.139241-6.72 5.56962 2.24-4.455696 11.2-18.936709 5.6-12.253165 3.36-13.367088 1.12-26.734177-2.24-4.455697v-6.683544z" fill="#fbfcdd"/><path d="m249.941176 91h10.058824l14.529412 7.875 4.470588 6.75-1.117647 7.875-2.235294 2.25-10.058824 2.25h-15.647059l-5.588235-3.375-3.352941-4.5v-10.125l5.588235-6.75zm1.117648 2.25-5.588236 4.5-2.235294 5.625 1.117647 7.875 3.352941 3.375h23.470589l4.470588-2.25 1.117647-5.625-1.117647-1.125h-19v-2.25h12.294117l4.470589-2.25-15.647059-7.875z" fill="#1e9c68"/><path d="m205.222222 167h13.333334l16.666666 3.285714 17.777778 8.761905 10 7.666667-1.111111 3.285714-5.555556-2.190476-8.888889-6.571429-13.333333-5.47619-15.555555-3.285715-15.555556-1.095238z" fill="#fdfedd"/><path d="m332.565217 296h6.782609l5.652174 1.129032v5.645162l-5.652174 9.032258-3.391304 2.258064-1.130435 12.419355-7.913044 4.516129-5.652173-1.129032-2.26087-2.258065 2.26087-10.16129 2.260869-4.516129 2.26087-7.903226 3.391304-4.516129 1.130435-3.387097zm1.130435 2.258065-4.521739 6.774193v2.258065h-2.26087l-2.260869 9.032258-2.26087 6.774193v4.516129l7.913044-1.129032 2.260869-2.258065 1.130435-11.290322 1.130435-2.258065 4.521739-2.258064 2.26087-7.903226-3.391305-2.258064z" fill="#259f6c"/><path d="m334 50 9.857143 1.1333333 8.761905 4.5333334 4.380952 4.5333333v6.8l-9.857143-3.4-13.142857-6.8z" fill="#089054"/><path d="m345.375 438h5.625v5.666667l-15.75 7.933333-11.25 3.4 1.125-7.933333 14.625-6.8z" fill="#0d9157"/><path d="m221 184 10.038462 2.25 11.153846 5.625 7.807692 6.75-1.115385 3.375h-7.807692l-5.576923-5.625-14.5-11.25z" fill="#f5f9d3"/><path d="m350 227h10v10.058824l-5.555556 7.823529-4.444444 1.117647z" fill="#ecf41e"/><path d="m204.333333 184h6.666667v4.307692l-16.666667 4.307693-10 5.384615h-3.333333l1.111111-4.307692 8.888889-5.384616z" fill="#fdfedc"/><path d="m264 149 6.774194 4.470588v6.705883l7.903225 1.117647 1.129033 1.117647h10.16129l6.774193 2.235294v-5.588235h1.129033v6.705882l1.129032 2.235294h-6.774194l-5.645161-1.117647-7.903226-1.117647-1.129032-1.117647-9.032258-1.117647-1.129032-1.117647v-8.941177l-3.387097-1.117647z" fill="#40a561"/><path d="m265.5 243h3.5v15.615385l-3.5 13.384615h-2.333333l1.166666-7.807692 2.333334-10.038462-4.666667-2.230769v-6.692308z" fill="#f1f7a6"/><path d="m241 104 2.272727 1.076923 3.409091 7.538462 1.136364 1.076923 18.181818 1.076923v3.230769h-15.909091l-5.681818-3.230769-3.409091-4.307693z" fill="#3ca97b"/><path d="m350 227h3v17.882353l-3 1.117647z" fill="#f9fcf2"/><path d="m261.285714 246h1.142857l2.285715 6.705882 2.285714 1.117647-1.142857 10.058824-3.428572 1.117647v-10.058824l-11.428571-1.117647v-1.117647h10.285714z" fill="#3ba571"/><path d="m221 183 10.285714 2.333333 5.714286 2.333334-2.285714 2.333333-8-1.166667z" fill="#f4f9da"/><path d="m296.8 159h1.1v6.75l1.1 2.25h-6.6l-4.4-2.25v-3.375l8.8 2.25z" fill="#5fb376"/><path d="m231 191 6.461538 2.222222 7.538462 6.666667-4.307692 1.111111-5.384616-5.555556z" fill="#e7f110"/><path d="m237.909091 83h1.090909v6.6666667h-7.636364l-1.090909 3.3333333-3.272727-4.4444444 1.090909-2.2222223 9.818182 2.2222223z" fill="#af4d5d"/><path d="m216.333333 149h6.666667l-4.444444 1.125-1.111112 5.625-2.222222 2.25-2.222222-2.25z" fill="#39a467"/><path d="m246.857143 81h1.142857v8l-5.714286-3.4285714-2.285714 3.4285714v-5.7142857l6.857143 1.1428571z" fill="#b15262"/><path d="m265 258h1v8.666667l-1 4.333333h-2l1-7.583333z" fill="#d7e7ba"/><path d="m163 206 5.714286 1 2.285714 3h-5.714286z" fill="#189964"/><path d="m164 195h3l1 6h-3z" fill="#209c69"/><path d="m327.555556 327 4.444444 1-5.555556 3-4.444444-1 4.444444-2z" fill="#1c9b66"/><path d="m320 262h1v6.75l-1 2.25h-2l1-7.875z" fill="#fffffc"/><path d="m285 90h8l-2.285714 4-4.571429-2z" fill="#b05060"/></g></svg>