<svg height="512" viewBox="0 0 480 480" width="512" xmlns="http://www.w3.org/2000/svg"><path d="m480 240c0 132.51-107.39 239.94-239.89 240h-2.59a242.26 242.26 0 0 1 -34.74-2.87 236 236 0 0 1 -27.9-6.06 240.08 240.08 0 0 1 -174.88-231.07c0-132.53 107.42-240 240-240h.11a239.26 239.26 0 0 1 174.34 75.17 239.79 239.79 0 0 1 65.55 164.83z" fill="#078930"/><path d="m409.7 409.7a239.2 239.2 0 0 1 -169.48 70.3h-2.7a242.26 242.26 0 0 1 -34.74-2.87 236 236 0 0 1 -27.9-6.06 240.09 240.09 0 0 1 -174.88-228.62c0-.82 0-1.64 0-2.46a239.21 239.21 0 0 1 70.3-169.69z" fill="#fcdd09"/><path d="m245.76 191.55 9.3 28.64a6.06 6.06 0 0 0 5.76 4.18h30.11a6.05 6.05 0 0 1 3.56 10.95l-24.36 17.68a6.07 6.07 0 0 0 -2.2 6.77l9.31 28.64a6.06 6.06 0 0 1 -9.32 6.77l-24.36-17.7a6.06 6.06 0 0 0 -7.12 0l-24.36 17.7a6.06 6.06 0 0 1 -9.32-6.77l9.31-28.64a6.07 6.07 0 0 0 -2.2-6.77l-24.36-17.7a6.05 6.05 0 0 1 3.56-10.95h30.11a6.06 6.06 0 0 0 5.76-4.18l9.3-28.64a6.06 6.06 0 0 1 11.52.02z" fill="#da121a"/></svg>