<svg viewBox="0 0 512 512" xmlns="http://www.w3.org/2000/svg" xmlns:xlink="http://www.w3.org/1999/xlink"><linearGradient id="a" gradientUnits="userSpaceOnUse" x1="74.98" x2="437.02" y1="74.98" y2="437.02"><stop offset="0" stop-color="#b8ffd6"/><stop offset="1" stop-color="#18d067"/></linearGradient><linearGradient id="b" gradientUnits="userSpaceOnUse" x1="100.44" x2="411.56" y1="100.44" y2="411.56"><stop offset="0" stop-color="#62e8a2"/><stop offset="1" stop-color="#04aa47"/></linearGradient><linearGradient id="c" x1="23.14" x2="134.86" xlink:href="#b" y1="23.14" y2="134.86"/><linearGradient id="d" gradientUnits="userSpaceOnUse" x1="31.65" x2="126.35" y1="31.65" y2="126.35"><stop offset="0" stop-color="#fff"/><stop offset="1" stop-color="#9df9c2"/></linearGradient><linearGradient id="e" x1="117.17" x2="373.48" xlink:href="#d" y1="199.05" y2="455.36"/><linearGradient id="f" x1="188" x2="444.31" xlink:href="#d" y1="128.22" y2="384.53"/><circle cx="256" cy="256" fill="url(#a)" r="256"/><path d="m256 476a220 220 0 0 1 -155.56-375.56 220 220 0 1 1 311.12 311.12 218.53 218.53 0 0 1 -155.56 64.44z" fill="url(#b)"/><circle cx="79" cy="79" fill="url(#c)" r="79"/><circle cx="79" cy="79" fill="url(#d)" r="67"/><path d="m234.61 317.46-6.84-19.94h-58.22l-6.83 20.38q-4 11.93-6.84 16.09t-9.28 4.18a13 13 0 0 1 -9.67-4.45 14.28 14.28 0 0 1 -4.2-10.08 24.75 24.75 0 0 1 1-6.72q1-3.46 3.23-9.65l36.63-103.19c1-3 2.29-6.52 3.76-10.68a56.12 56.12 0 0 1 4.65-10.35 20 20 0 0 1 6.54-6.67 18.45 18.45 0 0 1 10-2.55 18.64 18.64 0 0 1 10.11 2.55 20.32 20.32 0 0 1 6.55 6.56 47.8 47.8 0 0 1 4.2 8.62q1.71 4.6 4.35 12.3l37.41 102.55q4.4 11.7 4.39 17a14.81 14.81 0 0 1 -4.15 10.14 13 13 0 0 1 -10 4.61 11.92 11.92 0 0 1 -5.86-1.36 12.23 12.23 0 0 1 -4.1-3.68 35.06 35.06 0 0 1 -3.57-7.16q-1.87-4.81-3.26-8.5zm-57.44-44.12h42.83l-21.59-65.58z" fill="url(#e)"/><path d="m354.27 321.47v-3.79a63.31 63.31 0 0 1 -10.07 11.32 35.78 35.78 0 0 1 -11.52 6.78 42.48 42.48 0 0 1 -14.26 2.22 33.86 33.86 0 0 1 -17.34-4.45 30.72 30.72 0 0 1 -11.87-12.24q-5-9.43-5-27.1v-58.7q0-8.88 3.61-13.28a11.81 11.81 0 0 1 9.58-4.39 12.11 12.11 0 0 1 9.76 4.45q3.72 4.44 3.72 13.22v47.37a80.94 80.94 0 0 0 1.56 17.29 21.34 21.34 0 0 0 5.62 10.95q4.05 4 11 4a20.81 20.81 0 0 0 12.7-4.45 25.57 25.57 0 0 0 8.7-11.6q2.24-6.28 2.24-27.53v-36q0-8.77 3.71-13.22a12 12 0 0 1 9.67-4.45 11.81 11.81 0 0 1 9.58 4.39q3.61 4.4 3.61 13.28v85.75q0 8.44-3.47 12.68a11 11 0 0 1 -8.93 4.23 11.18 11.18 0 0 1 -9-4.39q-3.61-4.42-3.6-12.34z" fill="url(#f)"/><g fill="#017731"><path d="m49.1 56.33h20.17a7.37 7.37 0 0 1 4.2.93 3.55 3.55 0 0 1 1.3 3.09 6.63 6.63 0 0 1 -1.52 3.46c-1 1.44-2.18 3-3.49 4.76a50.59 50.59 0 0 0 -4 6.47 54 54 0 0 0 -3.8 9.45 40.5 40.5 0 0 0 -1 4.08c-.2 1.09-.42 2.49-.67 4.21s-.45 3-.63 4a9.27 9.27 0 0 1 -1.8 4.41 4.08 4.08 0 0 1 -3.11 1.23 3.68 3.68 0 0 1 -3-1.32 5.93 5.93 0 0 1 -1.12-3.92 25.17 25.17 0 0 1 .81-5.43 67.5 67.5 0 0 1 2.67-8.21 81.87 81.87 0 0 1 4.61-9.83 80.18 80.18 0 0 1 6.59-10h-16.21a6.24 6.24 0 0 1 -3.8-1 3.49 3.49 0 0 1 -1.25-3c0-1.44.44-2.36 1.33-2.78a8.92 8.92 0 0 1 3.72-.6z"/><path d="m101.54 81.12a14 14 0 0 1 -4.47 3.67 12.07 12.07 0 0 1 -5.46 1.21 12.55 12.55 0 0 1 -5.32-1.14 12.8 12.8 0 0 1 -4.29-3.16 14.14 14.14 0 0 1 -2.77-4.77 17.49 17.49 0 0 1 .12-11.82 14.28 14.28 0 0 1 7.94-8.32 15.74 15.74 0 0 1 6.19-1.18 16 16 0 0 1 7 1.46 13.8 13.8 0 0 1 5.14 4.26 20 20 0 0 1 3.21 7 37.57 37.57 0 0 1 1.17 9.67 42.33 42.33 0 0 1 -1.18 10.56 22.67 22.67 0 0 1 -3.43 7.67 14.4 14.4 0 0 1 -5.41 4.62 16.41 16.41 0 0 1 -7.14 1.51 14.33 14.33 0 0 1 -6.84-1.58 11.55 11.55 0 0 1 -4.47-3.78 8.05 8.05 0 0 1 -1.53-4.46 3.34 3.34 0 0 1 1-2.34 3.08 3.08 0 0 1 2.39-1 4 4 0 0 1 2.39.76 4.65 4.65 0 0 1 1.61 2.29 6.21 6.21 0 0 0 2.21 3 5.72 5.72 0 0 0 3.4 1.12 6.4 6.4 0 0 0 3.27-.9 8 8 0 0 0 2.63-2.56c1.49-2.22 2.35-6.15 2.64-11.79zm-.7-9.54a13.21 13.21 0 0 0 -.56-3.92 9.83 9.83 0 0 0 -1.57-3.1 7.6 7.6 0 0 0 -2.43-2.06 6.4 6.4 0 0 0 -3.07-.75 6 6 0 0 0 -4.87 2.55 10.56 10.56 0 0 0 -2 6.72 10.2 10.2 0 0 0 2 6.61 6.23 6.23 0 0 0 5 2.46 7 7 0 0 0 3.59-1 7.72 7.72 0 0 0 2.79-3 9.3 9.3 0 0 0 1.12-4.51z"/></g></svg>