<svg viewBox="0 0 512 512" xmlns="http://www.w3.org/2000/svg"><g fill="none"><circle cx="256" cy="256" fill="#91d100" r="256"/><path d="m427.635689 111.192216c15.375819 18.435785 25.77045 39.751543 31.617515 62.739749-.902343-33.043382-11.026542-63.633559-31.328661-87.9041863-60.220245-72.1830373-186.564747-62.1109034-282.119874 22.4314303-14.653684 13.009339-27.73754 26.891643-39.125663 41.5003 8.554129-10.035745 18.046519-19.718207 28.333086-28.88028 95.664905-84.5585849 226.64754-88.9640395 292.624283-9.887013" fill="#fff"/><path d="m176.655108 45.1280615c63.163675-1.8584518 135.782004 33.1175718 190.228597 98.4037945 82.131303 98.516845 91.911861 228.606703 21.800251 290.551563-59.338588 52.445046-156.931475 39.306405-235.289149-25.757955 81.246215 73.465459 191.257769 86.660626 259.762843 26.092515 76.841361-67.964824 72.546286-202.831085-9.600797-301.365594-62.947548-75.5286392-153.504333-107.7340311-226.897971-87.9218505" fill="#0c1d3c"/><path d="m459.265554 173.723527c1.876831 65.06436-32.104656 139.77338-95.503668 195.860787-95.647753 84.54092-221.954519 94.669579-282.1198742 22.505973-50.9817168-61.125241-38.2028395-161.64874 25.0486582-242.342395-71.4279208 83.668308-84.2582567 196.864113-25.3735332 267.485634 65.9973262 79.149803 196.9765302 74.765546 292.6071292-9.81247 73.359332-64.933644 104.58096-158.115897 85.342317-233.701062" fill="#fff"/><path d="m115.762472 77.9834964c17.884253-15.8338466 38.617938-26.5945315 60.889206-32.6159082-32.086818 1.0035745-61.736557 11.4294519-85.3594697 32.3371669-70.0762755 61.9801879-60.330023 192.0700469 21.8180887 290.4950379 12.614553 15.18345 26.113164 28.601539 40.278335 40.383922-9.835447-8.846238-19.18341-18.640337-27.990029-29.177746-82.1827609-98.552173-86.460683-233.421967-9.636817-301.4221193" fill="#0c1d3c"/><g fill="#fff" transform="translate(109 103)"><path d="m61 118-61 11.132241 57.2229965 27.867759c-.4215679-3.723133-.7331707-7.42751-.7331707-11.281223 0-9.624374 1.6312892-18.969185 4.5090592-27.718777"/><path d="m98.9986473 69.3781175-51.9986473-31.3781175 24.9949273 58c6.9736219-10.8464665 16.2600609-19.9323141 27.0050727-26.6201019"/><path d="m209.02405 90 20.97595-58-50 34.1593428c11.423144 5.7634804 21.269432 13.9967258 29.025444 23.8399616"/><path d="m222.940998 170c-3.755486 13.151099-10.31797 25.004323-18.940998 34.853224l62 11.146776z"/><path d="m62.5232783 176-39.5232783 48 61-15.913219c-9.387473-8.834431-16.6928913-19.813088-21.4777632-32.085024"/><path d="m226.480178 150 52.519822-32.840235-59-6.159765c4.190178 10.737081 6.640158 22.675228 6.640158 35.0524 0 1.334984-.159777 2.631794-.159777 3.9476"/><path d="m195 280-4.79077-64c-10.355978 7.548261-22.278637 12.698882-35.20923 14.815599z"/><path d="m100.241022 286 37.758978-52.904398c-13.667027-.764568-26.64466-4.717935-38-11.095602z"/><path d="m158 59.7873965-21.474126-59.7873965-16.525874 61c6.847713-1.833236 14.042203-2.9369185 21.456075-2.9369185 5.697345 0 11.157256.5799161 16.543925 1.7210079"/></g><g fill="#fdbf00" transform="translate(181 178)"><path d="m86 2.01976363c-4.9850828-1.27856015-10.163029-2.01976363-15.5518568-2.01976363-6.3891811 0-12.5678142 1.07474857-18.4481432 2.81658731l19.2029128 55.18341269z"/><path d="m78.4834866 141c12.5102646-1.581609 23.8949334-6.326578 33.5165134-13.45291l-38-44.54709z"/><path d="m34 130.768249c9.7406009 6.16881 20.9672928 9.87782 33 10.231751l-.161135-58z"/><path d="m5 93.1872901c3.95840625 11.9983999 10.8626927 22.5351639 19.9393778 30.8127099l37.0606222-46z"/><path d="m4.34356258 46c-2.76751865 7.37813-4.34356258 15.44647-4.34356258 23.8785692 0 3.8161908.34823059 7.4323658.93470038 11.1214308l56.06529962-10.0494981z"/><path d="m37.800042 8c-10.5446722 5.8798707-19.4696705 14.5405359-25.800042 24.9561852l50 29.0438148z"/><path d="m126 29.924569c-6.671913-9.8118662-15.832081-17.7160244-26.48918-22.924569l-19.51082 55z"/><path d="m138.655887 77c.217347-2.0609965.344113-4.0668632.344113-6.238119 0-10.1762531-2.209551-19.9474289-6.157879-28.761881l-49.842121 29.4793364z"/><path d="m79 78 39.854126 41c8.116803-8.54551 14.172591-19.2046012 17.145874-31.0399625z"/></g></g></svg>