<svg viewBox="0 0 512 512" xmlns="http://www.w3.org/2000/svg" xmlns:xlink="http://www.w3.org/1999/xlink"><linearGradient id="a" gradientUnits="userSpaceOnUse" x1="74.98" x2="437.02" y1="74.98" y2="437.02"><stop offset="0" stop-color="#b8ffd6"/><stop offset="1" stop-color="#18d067"/></linearGradient><linearGradient id="b" gradientUnits="userSpaceOnUse" x1="100.44" x2="411.56" y1="100.44" y2="411.56"><stop offset="0" stop-color="#62e8a2"/><stop offset="1" stop-color="#04aa47"/></linearGradient><linearGradient id="c" x1="23.14" x2="134.86" xlink:href="#b" y1="23.14" y2="134.86"/><linearGradient id="d" gradientUnits="userSpaceOnUse" x1="31.65" x2="126.35" y1="31.65" y2="126.35"><stop offset="0" stop-color="#fff"/><stop offset="1" stop-color="#9df9c2"/></linearGradient><linearGradient id="e" x1="114.07" x2="378.12" xlink:href="#d" y1="183.76" y2="447.81"/><linearGradient id="f" x1="185.55" x2="449.6" xlink:href="#d" y1="112.28" y2="376.34"/><circle cx="256" cy="256" fill="url(#a)" r="256"/><path d="m256 476a220 220 0 0 1 -155.56-375.56 220 220 0 1 1 311.12 311.12 218.53 218.53 0 0 1 -155.56 64.44z" fill="url(#b)"/><circle cx="79" cy="79" fill="url(#c)" r="79"/><circle cx="79" cy="79" fill="url(#d)" r="67"/><path d="m196.66 273.56h-26.57v45q0 9.65-4.1 14.63a13.49 13.49 0 0 1 -20.91.05q-4-4.92-4-14.47v-122.5q0-10.62 4.4-15.17t14-4.56h37.22q16.5 0 25.4 2.82a36.89 36.89 0 0 1 15.19 9 40.83 40.83 0 0 1 9.71 15.39 59.35 59.35 0 0 1 3.33 20.49q0 24.28-13.48 36.8t-40.19 12.52zm-7-72.84h-19.57v48.56h19.54a53 53 0 0 0 17.14-2.39 20 20 0 0 0 10.5-7.8q3.61-5.42 3.61-14.2 0-10.51-5.56-17.13-6.25-7.03-25.69-7.04z" fill="url(#e)"/><path d="m345.72 321.26v-2.93a71.3 71.3 0 0 1 -10.6 11.11 37.62 37.62 0 0 1 -24.66 8.73 36.06 36.06 0 0 1 -17.73-4.5 42.55 42.55 0 0 1 -14.12-12.85 61.07 61.07 0 0 1 -9-19.62 92.35 92.35 0 0 1 -3.08-24.39q0-27.75 12.21-43.25t32.14-15.5q11.52 0 19.44 4.39t15.4 13.55v-43.74q0-9.1 3.27-13.76a10.72 10.72 0 0 1 9.33-4.67q6.06 0 9.33 4.29t3.27 12.62v130.52q0 8.44-3.52 12.68a11.68 11.68 0 0 1 -18.12-.16q-3.55-4.39-3.56-12.52zm-52.46-43.47q0 12 3.37 20.49t9.24 12.72a21.17 21.17 0 0 0 12.79 4.28 21.93 21.93 0 0 0 12.85-4.06q5.81-4.07 9.28-12.47t3.46-21q0-11.82-3.46-20.33t-9.38-13a20.91 20.91 0 0 0 -12.94-4.5 20.39 20.39 0 0 0 -13.09 4.6q-5.78 4.62-8.94 13.23a57.61 57.61 0 0 0 -3.18 20.04z" fill="url(#f)"/><g fill="#017731"><path d="m64.64 97.81v-5.81h-15.2a6.11 6.11 0 0 1 -4.32-1.35 4.77 4.77 0 0 1 -1.43-3.65 3.7 3.7 0 0 1 .21-1.2 6.23 6.23 0 0 1 .63-1.27c.29-.45.58-.88.88-1.3l1.12-1.53 16-22.11a24.61 24.61 0 0 1 2.59-3.16 3.34 3.34 0 0 1 2.43-1q4.61 0 4.6 5.43v24.14h1.31a9 9 0 0 1 3.73.65c.94.44 1.41 1.4 1.41 2.87a3 3 0 0 1 -1.15 2.64 5.93 5.93 0 0 1 -3.45.83h-1.8v5.8a5.27 5.27 0 0 1 -1 3.57 3.77 3.77 0 0 1 -5.49 0 5.23 5.23 0 0 1 -1.07-3.55zm-13.02-12.81h13v-18.1z"/><path d="m91 77a14 14 0 0 1 4.48-3.74 11.93 11.93 0 0 1 5.42-1.21 12.49 12.49 0 0 1 9.58 4.25 14.31 14.31 0 0 1 2.83 4.82 16.92 16.92 0 0 1 1 5.8 16.46 16.46 0 0 1 -2 8 14.09 14.09 0 0 1 -5.45 5.59 15.49 15.49 0 0 1 -7.91 2 15 15 0 0 1 -8.73-2.51 15.89 15.89 0 0 1 -5.65-7.56 33.87 33.87 0 0 1 -1.95-12.25 42.84 42.84 0 0 1 1.18-10.55 22.68 22.68 0 0 1 3.39-7.7 14.5 14.5 0 0 1 5.36-4.62 15.94 15.94 0 0 1 7.17-1.56 14.4 14.4 0 0 1 6.83 1.56 11.6 11.6 0 0 1 4.45 3.87 8.18 8.18 0 0 1 1.5 4.43 3.41 3.41 0 0 1 -.94 2.32 3.07 3.07 0 0 1 -2.39 1 3.82 3.82 0 0 1 -2.36-.83 4.71 4.71 0 0 1 -1.61-2.29 6.47 6.47 0 0 0 -2.21-3 5.68 5.68 0 0 0 -3.51-1.14 6.19 6.19 0 0 0 -3.19 1 8.45 8.45 0 0 0 -2.68 2.58c-1.48 2.19-2.34 6.12-2.61 11.74zm8.18 19.4a6.14 6.14 0 0 0 5-2.57 10.73 10.73 0 0 0 2-6.75 11.55 11.55 0 0 0 -.94-4.88 7.21 7.21 0 0 0 -2.57-3.12 6.4 6.4 0 0 0 -3.55-1.08 6.83 6.83 0 0 0 -3.59 1 7.59 7.59 0 0 0 -2.76 3 9.6 9.6 0 0 0 -1 4.57 11.35 11.35 0 0 0 2.12 7 6.43 6.43 0 0 0 5.29 2.83z"/></g></svg>