<svg viewBox="0 0 512 512" xmlns="http://www.w3.org/2000/svg"><g fill="none" fill-rule="nonzero"><circle cx="256" cy="256" fill="#e9edf1" r="256"/><path d="m256 476.000831c-88.979524 0-169.1962975-53.604901-203.246905-135.811421-34.0506075-82.206519-15.2297076-176.829973 47.686905-239.74941 55.450515-56.1986026 136.762821-78.3759235 213.067745-58.1126278 76.304924 20.2632956 135.901587 79.8599588 156.164883 156.1648828 20.263295 76.304924-1.914025 157.61723-58.112628 213.067745-41.164296 41.39632-97.18082 64.600902-155.56 64.440831z" fill="#b2bdc6"/><g fill="#6d7e8b"><path d="m196.66 273.56h-26.57v45c0 6.433333-1.366667 11.31-4.1 14.63-2.554373 3.148083-6.389098 4.980478-10.443127 4.990211-4.054029.009655-7.897474-1.80438-10.466873-4.940211-2.666667-3.28-4-8.103333-4-14.47v-122.5c0-7.08 1.466667-12.136667 4.4-15.17s7.6-4.553333 14-4.56h37.22c11 0 19.466667.94 25.4 2.82 5.717193 1.726221 10.929815 4.814674 15.19 9 4.353182 4.334238 7.672271 9.594875 9.71 15.39 2.305119 6.581333 3.432358 13.517408 3.33 20.49 0 16.186667-4.493333 28.453333-13.48 36.8s-22.383333 12.52-40.19 12.52zm-7-72.84h-19.57v48.56h19.54c5.80569.147787 11.596199-.659641 17.14-2.39 4.275312-1.349648 7.973169-4.096628 10.5-7.8 2.406667-3.613333 3.61-8.346667 3.61-14.2 0-7.006667-1.853333-12.716667-5.56-17.13-4.166667-4.686667-12.73-7.033333-25.69-7.04z"/><path d="m345.72 321.26v-2.93c-3.123084 4.074123-6.677022 7.799052-10.6 11.11-6.910995 5.766279-15.660336 8.863673-24.66 8.73-6.198542.048831-12.305011-1.501034-17.73-4.5-5.619257-3.158486-10.447447-7.552412-14.12-12.85-4.141182-5.953726-7.188778-12.597485-9-19.62-2.109023-7.956409-3.144866-16.159069-3.08-24.39 0-18.5 4.07-32.916667 12.21-43.25s18.853333-15.5 32.14-15.5c7.68 0 14.16 1.463333 19.44 4.39s10.413333 7.443333 15.4 13.55v-43.74c0-6.066667 1.09-10.653333 3.27-13.76 2.09156-3.067191 5.621169-4.833887 9.33-4.67 4.04 0 7.15 1.43 9.33 4.29s3.27 7.066667 3.27 12.62v130.52c0 5.626667-1.173333 9.853333-3.52 12.68-2.241988 2.706634-5.583589 4.259813-9.098047 4.228781-3.514457-.031033-6.82811-1.642978-9.021953-4.388781-2.366667-2.926667-3.553333-7.1-3.56-12.52zm-52.46-43.47c0 8 1.123333 14.83 3.37 20.49s5.326667 9.9 9.24 12.72c3.682713 2.782888 8.17407 4.28586 12.79 4.280432 4.603291.028466 9.098954-1.391954 12.85-4.060432 3.873333-2.713333 6.966667-6.87 9.28-12.47s3.466667-12.6 3.460029-21c0-7.88-1.153362-14.656667-3.460029-20.33s-5.433333-10.006667-9.38-13c-3.685607-2.91057-8.243715-4.495693-12.94-4.5-4.766907-.04401-9.398557 1.583614-13.09 4.6-3.853333 3.08-6.833333 7.49-8.94 13.23-2.237293 6.439249-3.31399 13.22447-3.18 20.04z"/></g></g></svg>