<svg viewBox="0 0 512 512" xmlns="http://www.w3.org/2000/svg" xmlns:xlink="http://www.w3.org/1999/xlink"><linearGradient id="a" gradientUnits="userSpaceOnUse" x1="74.98" x2="437.02" y1="74.98" y2="437.02"><stop offset="0" stop-color="#b8ffd6"/><stop offset="1" stop-color="#18d067"/></linearGradient><linearGradient id="b" gradientUnits="userSpaceOnUse" x1="100.44" x2="411.56" y1="100.44" y2="411.56"><stop offset="0" stop-color="#62e8a2"/><stop offset="1" stop-color="#04aa47"/></linearGradient><linearGradient id="c" x1="23.14" x2="134.86" xlink:href="#b" y1="23.14" y2="134.86"/><linearGradient id="d" gradientUnits="userSpaceOnUse" x1="31.65" x2="126.35" y1="31.65" y2="126.35"><stop offset="0" stop-color="#fff"/><stop offset="1" stop-color="#9df9c2"/></linearGradient><linearGradient id="e" x1="128.65" x2="343.16" xlink:href="#d" y1="178.37" y2="392.89"/><linearGradient id="f" x1="181.31" x2="395.82" xlink:href="#d" y1="125.71" y2="340.23"/><circle cx="256" cy="256" fill="url(#a)" r="256"/><path d="m256 476a220 220 0 0 1 -155.56-375.56 220 220 0 1 1 311.12 311.12 218.53 218.53 0 0 1 -155.56 64.44z" fill="url(#b)"/><circle cx="79" cy="79" fill="url(#c)" r="79"/><circle cx="79" cy="79" fill="url(#d)" r="67"/><path d="m215.27 272.21h-26.57v45q0 9.65-4.1 14.63a13.5 13.5 0 0 1 -20.91.06q-4-4.94-4-14.47v-122.51q0-10.62 4.39-15.18t14-4.55h37.22q16.5 0 25.39 2.82a36.64 36.64 0 0 1 15.19 9 40.84 40.84 0 0 1 9.72 15.4 59.33 59.33 0 0 1 3.32 20.48q0 24.28-13.48 36.81t-40.17 12.51zm-7-72.85h-19.57v48.56h19.53q10.26 0 17.15-2.38a20 20 0 0 0 10.5-7.81q3.62-5.41 3.61-14.2 0-10.5-5.57-17.12-6.24-7.05-25.69-7.05z" fill="url(#e)"/><path d="m292.73 219.09h2.93v-17.78q0-7.16.34-11.22a18 18 0 0 1 1.9-7 12.83 12.83 0 0 1 4.5-4.93 11.8 11.8 0 0 1 6.54-1.9 12.51 12.51 0 0 1 9.18 4.23 12.9 12.9 0 0 1 3.47 6.88 69.18 69.18 0 0 1 .73 11.55v20.16h9.77q5.67 0 8.65 3a10.39 10.39 0 0 1 3 7.64q0 6-4.25 8.35t-12.16 2.38h-5v54.42a98.76 98.76 0 0 0 .44 10.68 11.55 11.55 0 0 0 2.35 6.07c1.27 1.55 3.33 2.33 6.2 2.33a30.36 30.36 0 0 0 6.35-.92 29.46 29.46 0 0 1 6.25-.92 7.69 7.69 0 0 1 5.81 2.87 10.19 10.19 0 0 1 2.59 7.1q0 7.15-7 10.95t-20.22 3.79q-12.51 0-18.95-4.66a21.63 21.63 0 0 1 -8.45-12.9q-2-8.24-2-22v-56.82h-3.52q-5.76 0-8.79-3a10.44 10.44 0 0 1 -3-7.7 10 10 0 0 1 3.18-7.64q3.1-3.01 9.16-3.01z" fill="url(#f)"/><g fill="#017731"><path d="m49.86 56.36h20.14a7.39 7.39 0 0 1 4.21.93 3.55 3.55 0 0 1 1.3 3.09 6.67 6.67 0 0 1 -1.51 3.46c-1 1.44-2.18 3-3.48 4.76a51.31 51.31 0 0 0 -4 6.47 53.22 53.22 0 0 0 -3.8 9.45 40.59 40.59 0 0 0 -1 4.09c-.2 1.08-.43 2.48-.67 4.21s-.45 3-.63 4a9.17 9.17 0 0 1 -1.81 4.41 4.06 4.06 0 0 1 -3.1 1.23 3.71 3.71 0 0 1 -3-1.32 6 6 0 0 1 -1.12-3.92 25.14 25.14 0 0 1 .82-5.42 65.34 65.34 0 0 1 2.67-8.22 81.87 81.87 0 0 1 4.61-9.83 79.8 79.8 0 0 1 6.59-10h-16.22a6.31 6.31 0 0 1 -3.8-.95 3.5 3.5 0 0 1 -1.25-3c0-1.44.44-2.36 1.33-2.78a9.05 9.05 0 0 1 3.72-.66z"/><path d="m81.19 67.52a11.27 11.27 0 0 1 1.65-5.88 11.77 11.77 0 0 1 4.85-4.41 16 16 0 0 1 7.46-1.65 18.8 18.8 0 0 1 6.33 1 12.83 12.83 0 0 1 4.52 2.63 10.77 10.77 0 0 1 2.69 3.84 11.7 11.7 0 0 1 .88 4.54 9.93 9.93 0 0 1 -1.51 5.41 11.28 11.28 0 0 1 -4.55 4 12.85 12.85 0 0 1 4.26 2.7 10.91 10.91 0 0 1 2.56 3.87 13.13 13.13 0 0 1 .86 4.88 14 14 0 0 1 -1.84 7.13 12.72 12.72 0 0 1 -5.42 5 18.37 18.37 0 0 1 -8.42 1.81 18.76 18.76 0 0 1 -8.59-1.81 12.53 12.53 0 0 1 -5.39-5 14 14 0 0 1 -1.82-7.1q0-8.39 7.69-11.51-6.21-2.97-6.21-9.45zm21.71 20.65a8.79 8.79 0 0 0 -1-4.24 6.69 6.69 0 0 0 -2.72-2.78 8.09 8.09 0 0 0 -3.94-1 7 7 0 0 0 -5.18 2.12 8.08 8.08 0 0 0 -2.06 5.96 9 9 0 0 0 1 4.29 7.41 7.41 0 0 0 10.28 2.85 7.05 7.05 0 0 0 2.66-2.9 9.15 9.15 0 0 0 .96-4.3zm-7.57-26.64a6 6 0 0 0 -4.58 1.83 6.49 6.49 0 0 0 -1.75 4.69 6 6 0 0 0 1.79 4.42 6.3 6.3 0 0 0 4.6 1.76 6.94 6.94 0 0 0 2.61-.47 5.7 5.7 0 0 0 3.29-3.26 6.75 6.75 0 0 0 .45-2.51 6.84 6.84 0 0 0 -.8-3.31 6 6 0 0 0 -2.26-2.3 6.54 6.54 0 0 0 -3.35-.85z"/></g></svg>