<svg viewBox="0 0 512 512" xmlns="http://www.w3.org/2000/svg" xmlns:xlink="http://www.w3.org/1999/xlink"><mask id="a" fill="#fff"><ellipse cx="255.854083" cy="255.813158" fill="#fff" fill-rule="evenodd" rx="255.854083" ry="255.813158"/></mask><g fill="none" fill-rule="evenodd"><path d="m255.854605 512c-141.078795 0-255.854605-114.757451-255.854605-255.812637 0-141.056229 114.77581-255.81263669 255.854605-255.81263669 141.077752 0 255.853561 114.75640769 255.853561 255.81263669 0 141.055186-114.775809 255.812637-255.853561 255.812637z" fill="#0092c8"/><g fill-rule="nonzero" transform="translate(.2918)"><g fill="#f9bb4b"><path d="m221.626604 128.359249h40.97663v27.979564h-40.97663z" mask="url(#a)"/><path d="m290.587274 121.364357h40.976631v27.979565h-40.976631z" mask="url(#a)"/><path d="m359.547945 121.364357h40.976631v27.979565h-40.976631z" mask="url(#a)"/></g><path d="m351.552505 177.323486h-54.814291c-12.198973 28.712964-12.198973 61.22135 0 89.934313h54.814291c-12.198973-28.712963-12.198973-61.221349 0-89.934313z" fill="#ffd782" mask="url(#a)"/><path d="m414.516596 177.323486h-34.706234c-12.358249 28.712964-12.358249 61.22135 0 89.934313h34.706234c-12.358249-28.712963-12.358249-61.221349 0-89.934313z" fill="#ffd782" mask="url(#a)"/><g fill="#fcf05a"><path d="m248.999789 268.507435-9.383445-56.209494 16.084921 12.64094 8.900829 53.31089z" mask="url(#a)"/><path d="m317.571885 149.343922h13.99202v27.979564h-13.99202z" mask="url(#a)"/><path d="m386.532556 149.343922h13.99202v27.979564h-13.99202z" mask="url(#a)"/><path d="m248.611214 156.338813h13.99202v27.979564h-13.99202z" mask="url(#a)"/></g><path d="m457.704108 364.151699c-8.993266.086074-17.70368-2.895969-24.456909-8.372917-8.613331-7.399691-21.965371-7.399691-30.578703 0-14.032208 11.210962-34.866476 11.210962-48.898684 0-8.595285-7.401009-21.938016-7.401009-30.533301 0-14.030964 11.206932-34.860152 11.206932-48.891116 0-8.596749-7.397585-21.936552-7.397585-30.533301 0-14.029749 11.209938-34.861368 11.209938-48.891117 0-4.103927-3.628526-9.584932-5.632049-15.270434-5.581944v-13.954862c8.989443-.0899 17.696552 2.892858 24.441775 8.372917 8.600731 7.395086 21.940137 7.395086 30.540868 0 14.029749-11.209938 34.861368-11.209938 48.891117 0 8.596748 7.397586 21.936552 7.397586 30.5333 0 14.029749-11.209938 34.861368-11.209938 48.891117 0 8.601791 7.399424 21.946644 7.399424 30.548435 0 14.04198-11.201003 34.871839-11.201003 48.913818 0 8.619434 7.405869 21.981971 7.405869 30.601405 0 6.753229-5.476947 15.463643-8.458991 24.456909-8.372917v13.954862c-5.692733-.052613-11.181797 1.950878-15.293135 5.581944-6.75936 5.476724-15.474327 8.458481-24.472044 8.372917z" fill="#f4f4e6" mask="url(#a)"/><path d="m457.704108 391.131993c-8.993266.086075-17.70368-2.895969-24.456909-8.372917-8.613331-7.399691-21.965371-7.399691-30.578703 0-14.032208 11.210962-34.866476 11.210962-48.898684 0-8.595285-7.401009-21.938016-7.401009-30.533301 0-14.030964 11.206932-34.860152 11.206932-48.891116 0-8.596749-7.397585-21.936552-7.397585-30.533301 0-14.029749 11.209938-34.861368 11.209938-48.891117 0-4.103927-3.628526-9.584932-5.632049-15.270434-5.581944v-13.954862c8.989443-.0899 17.696552 2.892858 24.441775 8.372917 8.600731 7.395086 21.940137 7.395086 30.540868 0 14.029749-11.209938 34.861368-11.209938 48.891117 0 8.596748 7.397586 21.936552 7.397586 30.5333 0 14.029749-11.209938 34.861368-11.209938 48.891117 0 8.601791 7.399424 21.946644 7.399424 30.548435 0 14.04198-11.201003 34.871839-11.201003 48.913818 0 8.619434 7.405869 21.981971 7.405869 30.601405 0 6.753229-5.476947 15.463643-8.458991 24.456909-8.372917v13.954862c-5.692733-.052613-11.181797 1.950878-15.293135 5.581944-6.75936 5.476724-15.474327 8.458481-24.472044 8.372917z" fill="#f4f4e6" mask="url(#a)"/><path d="m262.603234 184.318377h-27.948397c-8.042964 12.525688-8.042964 28.444388 0 40.970076h27.948397c-8.042964-12.525688-8.042964-28.444388 0-40.970076z" fill="#f9bb4b" mask="url(#a)"/><path d="m227.623184 267.257799 41.413881 61.95475h138.04627l41.413881-61.95475z" fill="#f9bb4b" mask="url(#a)"/><g mask="url(#a)"><g transform="translate(-.2469 11.4446)"><path d="m0 0h179.897402v155.886143h-179.897402z" fill="#dd3e46"/><path d="m0 333.75623h179.897402v155.886143h-179.897402z" fill="#dd3e46"/><path d="m179.897402 14.8091836-72.858448 63.1338881 72.858448 63.1338883v14.809183h-17.090253l-72.8584479-63.1338877-72.8584479 63.1338877h-17.0902532v-14.809183l72.8584479-63.1338883-72.8584479-63.1338881v-14.8091836h17.0902532l72.8584479 63.1338881 72.8584479-63.1338881h17.090253z" fill="#3e8051"/><path d="m44.9743506 445.674487v-44.634067c0-12.325357 9.9559863-22.317033 22.2373177-22.317033h22.2373178l11.1186589 22.317033h33.355977v44.634067z" fill="#f9bb4b"/><path d="m101.192289 155.752907v-155.752907h-22.4871755v155.752907h-78.7051135v178.003323h179.897402v-178.003323z" fill="#f3f2f0"/></g></g><g fill="#143441" mask="url(#a)"><g transform="translate(32.7343 195.3103)"><path d="m0 0h22.9868903v19.985403h-22.9868903z"/><path d="m44.9743506 0h22.9868903v19.985403h-22.9868903z"/><path d="m89.9487011 0h22.9868899v19.985403h-22.9868899z"/><path d="m0 40.9700761h22.9868903v19.985403h-22.9868903z"/><path d="m44.9743506 40.9700761h22.9868903v19.985403h-22.9868903z"/><path d="m89.9487011 40.9700761h22.9868899v19.985403h-22.9868899z"/><path d="m0 80.9408821h22.9868903v19.9854029h-22.9868903z"/><path d="m44.9743506 80.9408821h22.9868903v19.9854029h-22.9868903z"/><path d="m89.9487011 80.9408821h22.9868899v19.9854029h-22.9868899z"/></g></g></g></g></svg>