<svg enable-background="new 0 0 512 512" height="512" viewBox="0 0 512 512" width="512" xmlns="http://www.w3.org/2000/svg"><path d="m512 256v28.4l-1.6-.2c1.1-9.2 1.6-18.6 1.6-28.2z"/><path d="m512 227.6v28.4c0-9.6-.5-19-1.6-28.3z"/><path d="m510.4 227.7c1 9.3 1.6 18.7 1.6 28.3s-.5 19-1.6 28.3l-239.4-26.6-2.9-3z" fill="#ffda44"/><path d="m510.4 227.7-242.2 26.9-5.2-5.5 191.4-154.9c30.4 37.3 50.5 83.2 56 133.5z" fill="#0052b4"/><path d="m510.4 284.3c-6.4 58.4-32.4 110.8-71.4 150.7l-168-177.3z" fill="#0052b4"/><path d="m454.4 94.2-191.4 155-.2-.2 155-191.4c13.4 10.9 25.7 23.2 36.6 36.6z" fill="#ffda44"/><path d="m271.1 257.7 167.9 177.3c-46.5 47.5-111.3 77-183 77s-136.6-29.5-183-77l168-177.3 15-1.7z" fill="#d80027"/><path d="m417.8 57.6-155 191.4-5.4-5.7 26.9-241.7c50.3 5.5 96.2 25.6 133.5 56z" fill="#0052b4"/><path d="m256 0h28.4l-.2 1.6c-9.2-1.1-18.6-1.6-28.2-1.6z"/><path d="m263 249.2 5.2 5.4-12.2 1.4 1.4-12.7 5.4 5.7-.9 1.1z" fill="#d80027"/><path d="m284.3 1.6-26.9 241.7-1.4-1.5-1.4 1.5-26.9-241.7c9.3-1.1 18.7-1.6 28.3-1.6s19 .5 28.3 1.6z" fill="#ffda44"/><path d="m227.6 0h28.4c-9.6 0-19 .5-28.3 1.6z"/><path d="m250.3 247.8-6.5 6.8-242.2-26.9c5.6-51 26.2-97.5 57.2-134.9l191.3 154.9z" fill="#0052b4"/><path d="m95.4 56.6 154.7 191.1-191.3-154.9c11-13.3 23.3-25.4 36.6-36.2z" fill="#ffda44"/><g fill="#d80027"><path d="m268.2 254.7-12.2 1.3 15.1 1.7z"/><path d="m262.8 249-.9 1.1 1.1-.9z"/><path d="m256 241.8-1.4 1.5-4.3 4.5-6.5 6.9-2.9 3 15.1-1.7 1.4-12.7z"/></g><path d="m243.8 254.6-2.9 3-239.3 26.7c-1.1-9.3-1.6-18.7-1.6-28.3s.5-19 1.6-28.3z" fill="#ffda44"/><path d="m240.9 257.7-167.9 177.3c-39-39.9-65-92.3-71.4-150.7z" fill="#0052b4"/><path d="m95.4 56.6c37-29.8 82.5-49.6 132.3-55.1l26.9 241.7-4.3 4.6-.2-.2z" fill="#0052b4"/><path d="m1.6 227.7c-1.1 9.3-1.6 18.7-1.6 28.3v-28.4z"/><path d="m1.6 284.3-1.6.1v-28.4c0 9.6.5 19 1.6 28.3z"/></svg>