<svg viewBox="0 0 512 512" xmlns="http://www.w3.org/2000/svg" xmlns:xlink="http://www.w3.org/1999/xlink"><linearGradient id="a" gradientUnits="userSpaceOnUse" x1="74.98" x2="437.02" y1="74.98" y2="437.02"><stop offset="0" stop-color="#b8ffd6"/><stop offset="1" stop-color="#18d067"/></linearGradient><linearGradient id="b" gradientUnits="userSpaceOnUse" x1="100.44" x2="411.56" y1="100.44" y2="411.56"><stop offset="0" stop-color="#62e8a2"/><stop offset="1" stop-color="#04aa47"/></linearGradient><linearGradient id="c" x1="23.14" x2="134.86" xlink:href="#b" y1="23.14" y2="134.86"/><linearGradient id="d" gradientUnits="userSpaceOnUse" x1="31.65" x2="126.35" y1="31.65" y2="126.35"><stop offset="0" stop-color="#fff"/><stop offset="1" stop-color="#9df9c2"/></linearGradient><linearGradient id="e" x1="116.47" x2="433.12" xlink:href="#d" y1="178.3" y2="494.96"/><linearGradient id="f" x1="177.27" x2="493.93" xlink:href="#d" y1="117.49" y2="434.15"/><circle cx="256" cy="256" fill="url(#a)" r="256"/><path d="m256 476a220 220 0 0 1 -155.56-375.56 220 220 0 1 1 311.12 311.12 218.53 218.53 0 0 1 -155.56 64.44z" fill="url(#b)"/><circle cx="79" cy="79" fill="url(#c)" r="79"/><circle cx="79" cy="79" fill="url(#d)" r="67"/><path d="m232.7 295.51-6.83-19.94h-58.22l-6.84 20.37q-4 11.94-6.84 16.1t-9.28 4.18a13 13 0 0 1 -9.67-4.45 14.28 14.28 0 0 1 -4.2-10.08 24.78 24.78 0 0 1 1-6.72q1-3.47 3.22-9.65l36.63-103.19c1-3 2.3-6.52 3.76-10.68a56.47 56.47 0 0 1 4.69-10.35 19.9 19.9 0 0 1 6.55-6.67 18.45 18.45 0 0 1 10-2.55 18.64 18.64 0 0 1 10.11 2.55 20.39 20.39 0 0 1 6.54 6.56 47.8 47.8 0 0 1 4.2 8.62q1.71 4.6 4.35 12.3l37.41 102.54q4.39 11.71 4.4 17a14.86 14.86 0 0 1 -4.15 10.14 13 13 0 0 1 -10 4.61 11.94 11.94 0 0 1 -5.86-1.36 12.33 12.33 0 0 1 -4.1-3.68 34.61 34.61 0 0 1 -3.57-7.16c-1.29-3.19-2.39-6-3.3-8.49zm-57.43-44.12h42.78l-21.59-65.58z" fill="url(#e)"/><path d="m381.18 217.57v86a99.38 99.38 0 0 1 -2.84 25.37 41.86 41.86 0 0 1 -9.08 17.56 37.41 37.41 0 0 1 -16.36 10.3q-10.11 3.36-25.15 3.36a66.68 66.68 0 0 1 -24.62-4.28q-10.85-4.29-16.7-11.06t-5.86-13.93a12.08 12.08 0 0 1 3.32-8.83 10.75 10.75 0 0 1 8-3.42q5.85 0 10.25 5.75c1.44 1.95 2.92 3.91 4.45 5.9a27 27 0 0 0 5.08 5.1 18.83 18.83 0 0 0 6.69 3.14 35.2 35.2 0 0 0 9 1q10.36 0 16.07-3.2a17.48 17.48 0 0 0 8-8.94 39.21 39.21 0 0 0 2.69-12.3q.39-6.56.59-21.09a45.88 45.88 0 0 1 -14.22 14.53q-8.06 5-19.19 5a37.67 37.67 0 0 1 -23.4-7.59q-10-7.59-15.38-21.25t-5.37-31.54a82.48 82.48 0 0 1 3.27-24.07 52.08 52.08 0 0 1 9.33-18.1 39.08 39.08 0 0 1 31.35-14.85q11.34 0 19.64 4.82t15.43 15.13v-4q0-7.69 3.42-11.92a10.8 10.8 0 0 1 8.79-4.23q7.71 0 10.26 5.59t2.54 16.05zm-77.27 37.51q0 18 7.08 27.21t18.32 9.21a22.15 22.15 0 0 0 12.55-4q5.91-3.94 9.62-11.92t3.71-19.35q0-18.1-7.18-28.18t-18.9-10.05q-11.43 0-18.31 9.64t-6.89 27.44z" fill="url(#f)"/><g fill="#017731"><path d="m64.24 97.81v-5.81h-15.24a6.1 6.1 0 0 1 -4.31-1.35 4.74 4.74 0 0 1 -1.4-3.65 3.7 3.7 0 0 1 .21-1.2 6.87 6.87 0 0 1 .64-1.27c.28-.45.58-.88.88-1.3l1.12-1.53 16-22.11a25.49 25.49 0 0 1 2.59-3.16 3.37 3.37 0 0 1 2.44-1q4.61 0 4.6 5.43v24.14h1.3a9.07 9.07 0 0 1 3.74.65c.94.44 1.41 1.4 1.41 2.87a3 3 0 0 1 -1.15 2.64 5.93 5.93 0 0 1 -3.45.83h-1.81v5.8a5.27 5.27 0 0 1 -1 3.57 3.77 3.77 0 0 1 -5.49 0 5.23 5.23 0 0 1 -1.08-3.55zm-13.02-12.81h13v-18.1z"/><path d="m89 56.48h20.2a7.3 7.3 0 0 1 4.21.94 3.55 3.55 0 0 1 1.3 3.09 6.7 6.7 0 0 1 -1.53 3.49c-1 1.43-2.18 3-3.48 4.75a51.45 51.45 0 0 0 -4 6.48 53.54 53.54 0 0 0 -3.8 9.44c-.48 1.65-.83 3-1 4.09s-.42 2.49-.66 4.21-.46 3-.64 4a9.08 9.08 0 0 1 -1.8 4.41 4 4 0 0 1 -3.1 1.24 3.7 3.7 0 0 1 -3-1.33 5.9 5.9 0 0 1 -1.12-3.91 24.68 24.68 0 0 1 .82-5.43 65.09 65.09 0 0 1 2.6-8.29 81.17 81.17 0 0 1 11.2-19.85h-16.2a6.27 6.27 0 0 1 -3.8-1 3.49 3.49 0 0 1 -1.26-3c0-1.43.44-2.36 1.33-2.77a8.92 8.92 0 0 1 3.73-.56z"/></g></svg>