<svg enable-background="new 0 0 1000 1000" height="1000" viewBox="0 0 1000 1000" width="1000" xmlns="http://www.w3.org/2000/svg" xmlns:xlink="http://www.w3.org/1999/xlink"><clipPath id="a"><circle cx="500" cy="500" r="500"/></clipPath><path clip-path="url(#a)" d="m-250-95h1500v1190h-1500z" fill="#002395"/><path clip-path="url(#a)" d="m150 0h700v462.905h-700z" fill="#fff"/><path clip-path="url(#a)" d="m161.288 0h225.808v451.617h-225.808z" fill="#002395"/><path clip-path="url(#a)" d="m612.904 0h225.809v451.617h-225.809z" fill="#ed2939"/><g fill="#fff"><path clip-path="url(#a)" d="m620.041 765.361h37.261l-76.584-122.112-56.917 88.994v-81.758h34.147l25.356-40.354h-59.504v-25.871h75.805l26.65-42.436h-252.51l26.649 42.436h75.806v147.983l-56.917-88.994-76.584 122.112h37.251l7.519-13.451h63.523l49.008 87.963 49.007-87.963h63.516zm-216.372-42.435 15.614-27.934 15.563 27.934zm161.485 0 15.563-27.934 15.609 27.934z"/><g clip-path="url(#a)"><path d="m509.761 898.883-9.76-30.035-9.76 30.035h-31.585l25.553 18.562-9.756 30.028 25.546-18.56 25.55 18.56-9.758-30.034 25.543-18.556z"/><path d="m416.62 828.504-9.758-30.025-9.757 30.025h-31.586l25.555 18.567-9.76 30.033 25.546-18.562 25.551 18.562-9.76-30.038 25.546-18.562z"/><path d="m602.896 828.504-9.758-30.025-9.757 30.025h-31.587l25.556 18.567-9.76 30.033 25.546-18.562 25.551 18.562-9.76-30.038 25.546-18.562z"/><path d="m343.998 638.032 25.552-18.563h-31.583l-9.76-30.034-9.76 30.034h-31.574l25.543 18.557-9.757 30.034 25.55-18.56 25.546 18.56z"/><path d="m687.574 638.032 25.554-18.563h-31.583l-9.761-30.034-9.76 30.034h-31.574l25.543 18.557-9.758 30.034 25.551-18.56 25.547 18.56z"/></g></g></svg>