<svg viewBox="0 0 512 512" xmlns="http://www.w3.org/2000/svg"><g fill="none"><circle cx="256" cy="256" fill="#ffd700" r="256"/><path d="m256 16c132.54834 0 240 107.45166 240 240s-107.45166 240-240 240-240-107.45166-240-240 107.45166-240 240-240zm-184.8046875 197h-25.1953125l19.1015625 85.898438h26.015625l15.0000005-54.082032 15.058593 54.082032h26.015625l18.925782-85.898438h-25.078126l-9.082031 47.988281-13.300781-47.988281h-25.1367188l-13.2421874 47.988281zm156.2109375 0h-28.945313l-32.285156 85.898438h27.128906l4.160157-14.179688h30.234375l4.21875 14.179688h27.773437zm75.410156 0h-34.921875v85.898438h21.738281v-65.507813l16.757813 65.507813h19.628906l16.816407-65.507813v65.507813h21.679687v-85.898438h-34.804688l-13.417968 52.265625zm131.191406 0h-28.945312l-32.285156 85.898438h27.128906l4.160156-14.179688h30.234375l4.21875 14.179688h27.773438zm-221.367187 22.265625 9.492187 30.878906h-18.925781zm206.601563 0 9.492187 30.878906h-18.925781z" fill="#00a425"/></g></svg>