<svg fill="none" height="512" viewBox="0 0 36 36" width="512" xmlns="http://www.w3.org/2000/svg"><path d="m18 36c9.9411 0 18-8.0589 18-18 0-9.94113-8.0589-18-18-18-9.94113 0-18 8.05887-18 18 0 9.9411 8.05887 18 18 18z" fill="#f0f0f0"/><g fill="#acabb1"><path d="m30.9549 14.078-.9705.4852c.1867-1.1875.2661-2.9617-.3472-3.7795-.7602-1.01364-1.3599-1.07276-2.5256-1.07276.0169.43926-.0676.67576-.0676.67576s-.3209-.1183-.6081-.169c.1628.4559.0582 1.4887-.2882 1.6941s-1.0256.6351-1.0256.6351l.4002.6464s.8059-.4976.8122-.5006c.3913-.1854.3674-.0549.8869.0465.5355.1044 1.0981-.2323 1.0981-.2323s-1.5204 1.267-1.5204 2.7875c0 1.5204 1.223 2.1464 1.664 2.7114.5406.6926.4223 1.7569-.5913 1.7569-.5626-.0451-.8046-.4248-.8176-.8233.0081-.0927.0335-.184.0764-.2698.0937-.1875.2833-.3039.4924-.3025l.0023-.5068c-.0017 0-.0033-.0001-.005-.0001-.3269 0-.6266.1474-.824.3958-.3544.4149-.4805 1.3252.0619 1.8615.2957.2923.7009.4983 1.2079.4983 1.267 0 2.0272-1.0136 2.0272-2.0272 0-.8143-.3267-1.7921-.324-2.6708l1.1856.5929s.4055-.3339.4055-1.2164-.4055-1.2163-.4055-1.2163zm-3.9024-2.078c-.14 0-.2534-.1134-.2534-.2534 0-.1399.1134-.2534.2534-.2534.1399 0 .2534.1135.2534.2534 0 .14-.1135.2534-.2534.2534z"/><path d="m4.97963 14.0778.97049.4853c-.18666-1.1875-.2661-2.9617.34722-3.7795.76022-1.01354 1.35995-1.07266 2.52562-1.07266-.0169.43926.06758.67576.06758.67576s.32097-.1183.60815-.169c-.16281.4559-.05823 1.4887.28818 1.6941.34643.2054 1.02563.635 1.02563.635l-.4002.6464s-.80594-.4976-.81225-.5006c-.39133-.1853-.36743-.0549-.88692.0465-.53547.1045-1.09808-.2323-1.09808-.2323s1.52044 1.267 1.52044 2.7874-1.22307 2.1464-1.66404 2.7114c-.5406.6926-.42233 1.7568.59129 1.7568.56259-.0451.80459-.4248.81759-.8232-.00803-.0927-.03345-.1841-.07632-.2698-.09379-.1876-.28331-.304-.49242-.3026l-.00233-.5068h.00499c.32689 0 .62665.1474.824.3957.35446.4149.48048 1.3252-.06188 1.8614-.2957.2924-.7009.4984-1.20791.4984-1.26703 0-2.02725-1.0136-2.02725-2.0272 0-.8143.32679-1.792.32403-2.6706l-1.18561.5928s-.40545-.3339-.40545-1.2164c0-.8824.40545-1.2163.40545-1.2163zm3.90245-2.0778c.13996 0 .25341-.1135.25341-.2534 0-.14-.11345-.2534-.25341-.2534s-.25341.1134-.25341.2534c0 .1399.11345.2534.25341.2534z"/><path d="m24.8134 28.2891v-.7827h-13.6582v.7827h-3.41448v-3.1307h3.41448v-.7826h13.6582v.7826h3.4145v3.1307z"/></g><path d="m12.6392 8.11362c-.4191.21816-.6373.53965-.6717.97596-.0344.47076.0689.80373.3387 1.05632.1206.1206.2239.2354.2239.2641 0 .023-.0918.1378-.2067.2469-.2698.2526-.4248.5855-.4248.93 0 .3559.1091.6028.4019.9243l.2411.2641-.2641.2927c-.5282.5856-.5109 1.2573.0402 1.8142l.2354.2468h5.4079 5.4023l.264-.2813c.511-.5453.511-1.1367.0058-1.7624l-.2584-.3158.2412-.287c.5281-.6315.5167-1.2114-.0287-1.8199-.2469-.2698-.2526-.3215-.0574-.4478.3157-.2124.5109-.93003.3674-1.36634-.2124-.65447-1.1252-1.09078-1.6821-.80373-.1034.05166-.31.19519-.465.31575-.155.1263-.2986.22389-.3273.22389-.0229 0-.1607-.10333-.3042-.22963-.5569-.4765-1.2114-.44206-1.7682.09759l-.2125.20668-.2813-.25835c-.5683-.5339-1.2802-.51094-1.86.05167l-.2124.20668-.2297-.20668c-.3387-.31001-.5626-.40186-.953-.4076-.3731-.00575-.7233.14926-.9989.44779l-.1378.14352-.2985-.2526c-.5511-.47076-.9932-.55113-1.5271-.26982z" fill="#0052b4"/><path d="m12.3604 15.3956c-.5626.6257-.5568 1.263.0115 1.8945l.2124.2353-.2411.2641c-.132.1436-.2755.3502-.3215.4536-.1837.442-.0459 1.0333.3158 1.372.2181.2125.2239.2986.0172.5512-.0918.1091-.2009.2641-.2411.3444-.4306.8152.2124 1.8371 1.1654 1.8371.3789 0 .6659-.1205.9243-.3961.2067-.2181.3157-.2239.4995-.0287.2698.2985.6257.4822.9242.4822.3502 0 .5684-.109.9243-.4478l.2699-.264.2468.2698c.5339.5741 1.0736.5913 1.7912.0459l.2928-.2181.2526.2296c.3157.2756.5511.3846.8611.3846s.5397-.1205.9014-.4765l.2985-.287.2296.2067c.4421.3961.6832.5224 1.0047.5224.333 0 .5683-.1091.9013-.4076.31-.2813.4765-.6085.4363-.8784-.0402-.2928-.3042-.8267-.4994-1.0104l-.1665-.1607.2583-.2928c.5626-.6602.5684-1.1712.0115-1.8256l-.2296-.2756.2411-.2928c.5396-.6372.5339-1.2285-.0115-1.8084l-.2928-.3042-5.3735.0057-5.3735.0057-.2411.2699z" fill="#d80027"/><path d="m16.0433 10.5805c-.4075.8432-.4247 1.2215-.0861 1.8971.2641.5189.574.8486.9987 1.0594 1.1078.5567 2.5256.1459 3.0823-.8918.3444-.6378.3042-1.7026-.0746-2.1674l-.1033-.1243-.0976.3675c-.1377.5243-.2755.7891-.551 1.0702-.5166.5243-1.2283.6432-1.963.3189-.5683-.254-.7978-.6054-1.0102-1.5837l-.0517-.2432z" fill="#f0f0f0"/><g fill="#ffda44"><path d="m15.2923 17.6856c-.0103.3349.0058.4881.0588.7364-.1686-.1627-.3384-.2764-.5719-.4119-.2975-.1727-.6732-.3375-.8007-.1268-.1228.2028.2294.4804.5051.636.3015.1701.4753.1934.6714.2703-.1661.0878-.3926.1468-.6437.3079-.2464.158-.6147.485-.475.6938.1422.2125.5531-.0263.7848-.1814.1929-.1291.4482-.3329.5475-.4372-.0196.1497-.0789.4482-.0745.7336.0053.3466.0533.7345.3114.7338.2636-.0006.3196-.4574.3154-.7662-.0043-.3228-.0411-.5509-.0729-.7102.1142.1165.2864.2834.5135.4625.1875.1477.6465.3666.784.1569.1399-.2134-.078-.4255-.4783-.6796-.2806-.178-.4793-.239-.6621-.3147.1849-.0757.387-.0952.6824-.2748.4383-.2664.6241-.4446.4897-.674-.1306-.223-.3945-.1011-.7954.1539-.2148.1366-.4157.3177-.5519.4479.0312-.2049.0646-.507.0621-.7309-.0039-.3327-.0768-.7628-.3033-.7641-.2266-.0013-.285.3725-.2964.7388z"/><path d="m15.9428 18.7911c0 .1948-.1579.3527-.3527.3527s-.3526-.1579-.3526-.3527c0-.1947.1578-.3526.3526-.3526.1946 0 .3524.1576.3527.3522"/></g></svg>