<svg xmlns="http://www.w3.org/2000/svg" width="48" height="48" viewBox="0 0 48 48" fill="currentColor"><path d="M41.217.017c3.078.23 5.546 2.826 5.768 6.026.25 3.835-2.635 7.007-6.24 6.978a6.08 6.08 0 0 1-4.464-1.932c-.97-1.038-2.274-1.643-3.66-1.643h-.445c-1.386 0-2.69.605-3.66 1.643-1.137 1.183-2.718 1.932-4.465 1.932a6.08 6.08 0 0 1-4.465-1.932c-.97-1.038-2.273-1.643-3.66-1.643h-.5c-1.386 0-2.69.605-3.66 1.615l-.055.057-.056.058a5.5 5.5 0 0 0-1.553 3.806v.519c0 1.442.583 2.797 1.581 3.806a6.7 6.7 0 0 1 1.858 4.642c0 1.817-.693 3.46-1.858 4.643a5.4 5.4 0 0 0-1.58 3.806v.576c0 1.442.582 2.797 1.58 3.807l.056.057a5 5 0 0 0 3.66 1.586h.582c1.36 0 2.663-.605 3.633-1.615a6.15 6.15 0 0 1 4.437-1.903c3.633 0 6.517 3.172 6.267 7.007-.221 3.23-2.717 5.824-5.795 6.055a6.17 6.17 0 0 1-5.02-1.99c-.943-1.037-2.218-1.643-3.577-1.643h-.527c-1.359 0-2.634.634-3.577 1.644a6.17 6.17 0 0 1-4.77 2.018c-3.245-.115-5.907-2.855-6.045-6.257a6.6 6.6 0 0 1 1.885-4.93 5.3 5.3 0 0 0 1.553-3.72v-.663a5.4 5.4 0 0 0-1.58-3.806 6.7 6.7 0 0 1-1.858-4.643c0-1.816.693-3.46 1.858-4.642a5.4 5.4 0 0 0 1.58-3.806v-.49c0-1.413-.527-2.797-1.525-3.778l-.083-.086C.286 8.523.397 4.14 3.142 1.632a6.107 6.107 0 0 1 8.097-.173c.194.173.389.375.583.576a4.9 4.9 0 0 0 3.605 1.558h.471c1.387 0 2.69-.606 3.66-1.644C20.697.767 22.277.017 24.024.017a6.08 6.08 0 0 1 4.465 1.932c.97 1.038 2.274 1.644 3.66 1.644h.5c1.359 0 2.634-.606 3.577-1.615C37.473.65 39.248-.127 41.217.018M40.8 39.26c1.164 0 2.108.981 2.108 2.192 0 1.21-.944 2.191-2.108 2.191s-2.107-.981-2.107-2.191.943-2.192 2.107-2.192M23.996 21.758c1.164 0 2.107.981 2.107 2.191s-.943 2.192-2.107 2.192-2.108-.981-2.108-2.192c0-1.21.944-2.19 2.108-2.19m16.805 0c1.164 0 2.108.981 2.108 2.191s-.944 2.192-2.108 2.192-2.107-.981-2.107-2.192c0-1.21.943-2.19 2.107-2.19"/></svg>