<svg xmlns="http://www.w3.org/2000/svg" width="48" height="48" viewBox="0 0 48 48" fill="currentColor"><path d="M2.224 14.41h6.562v1.846H4.89v1.5h3.328v1.734H4.89V23H2.224z"/><path d="M9.882 18.711q0-2.103 1.172-3.275c1.172-1.172 1.869-1.172 3.263-1.172q2.145 0 3.305 1.151t1.16 3.226q0 1.506-.507 2.47a3.6 3.6 0 0 1-1.464 1.5q-.96.536-2.388.536-1.453 0-2.405-.463-.953-.463-1.544-1.465t-.592-2.508m2.654.012q0 1.3.483 1.869.484.568 1.316.568.856 0 1.324-.556c.468-.556.469-1.038.469-1.999q0-1.212-.49-1.772-.489-.56-1.327-.56-.802 0-1.289.569t-.486 1.88"/><path d="M20.247 23v-8.59h4.424q1.23 0 1.88.211c.65.211.784.401 1.05.782q.398.571.398 1.392 0 .715-.305 1.233a2.4 2.4 0 0 1-.838.841q-.34.205-.931.34.474.158.691.316.147.105.425.452.279.345.372.533L28.696 23h-3l-1.418-2.625q-.27-.51-.48-.662a1.1 1.1 0 0 0-.65-.2h-.235V23zm2.666-5.11h1.12q.18 0 .702-.117a.7.7 0 0 0 .431-.27.8.8 0 0 0 .167-.497q0-.416-.264-.639-.263-.222-.99-.222h-1.166z"/><path d="M29.54 14.41h7.113v1.834H32.2v1.365h4.131v1.752h-4.13v1.694h4.581V23H29.54z"/><path d="M37.62 14.41h2.924l1.523 2.643 1.477-2.643h2.894l-2.671 4.16L46.69 23h-2.982l-1.693-2.76-1.7 2.76h-2.964l2.964-4.477z"/><path d="M15.536 24.41h4.412q1.44 0 2.16.686.717.686.717 1.95 0 1.302-.782 2.034t-2.388.733h-1.453V33h-2.666zm2.666 3.662h.65q.768 0 1.079-.266a.86.86 0 0 0 .31-.683q0-.405-.27-.685c-.27-.28-.517-.282-1.013-.282h-.756z"/><path d="M24.226 24.41h2.654v3.246l2.783-3.246h3.527l-3.129 3.24 3.27 5.35h-3.27l-1.81-3.533-1.371 1.435V33h-2.654z"/></svg>