<svg viewBox="0 0 512 512" xmlns="http://www.w3.org/2000/svg" xmlns:xlink="http://www.w3.org/1999/xlink"><mask id="a" fill="#fff"><circle cx="256" cy="256" fill="#fff" fill-rule="evenodd" r="256"/></mask><mask id="b" fill="#fff"><circle cx="256" cy="256" fill="#fff" fill-rule="evenodd" r="256"/></mask><mask id="c" fill="#fff"><circle cx="256" cy="256" fill="#fff" fill-rule="evenodd" r="256"/></mask><mask id="d" fill="#fff"><circle cx="256" cy="256" fill="#fff" fill-rule="evenodd" r="256"/></mask><mask id="e" fill="#fff"><circle cx="256" cy="256" fill="#fff" fill-rule="evenodd" r="256"/></mask><mask id="f" fill="#fff"><circle cx="256" cy="256" fill="#fff" fill-rule="evenodd" r="256"/></mask><mask id="g" fill="#fff"><circle cx="256" cy="256" fill="#fff" fill-rule="evenodd" r="256"/></mask><mask id="h" fill="#fff"><circle cx="256" cy="256" fill="#fff" fill-rule="evenodd" r="256"/></mask><mask id="i" fill="#fff"><circle cx="256" cy="256" fill="#fff" fill-rule="evenodd" r="256"/></mask><g fill="none" fill-rule="evenodd"><g fill-rule="nonzero"><path d="m-1 0h514v73.5h-514z" fill="#1b5e20" mask="url(#a)"/><path d="m-1 73h514v73.5h-514z" fill="#fff" mask="url(#b)"/><path d="m-1 146h514v73.5h-514z" fill="#1b5e20" mask="url(#c)"/><path d="m-1 219h514v73.5h-514z" fill="#fff" mask="url(#d)"/><path d="m-1 292h514v73.5h-514z" fill="#1b5e20" mask="url(#e)"/><path d="m-1 365h514v73.5h-514z" fill="#fff" mask="url(#f)"/><path d="m-1 438h514v73.5h-514z" fill="#1b5e20" mask="url(#g)"/><path d="m0 0h276v219h-276z" fill="#c62828" mask="url(#h)"/></g><g fill="#fff" mask="url(#i)"><g transform="translate(42.5 73.5)"><path d="m85.31976 74.7932925s-2.378589 1.0008545-.749286 20.076675c1.3303155 15.7011295 6.8985135 20.8160665 6.8985135 20.8160665l2.43185 9.71911 23.0668655.094856s.417615-6.018503 1.310947-7.921707c2.194597-4.675923 10.89309-10.020704 14.621363-18.0907755 4.009102-4.919144 2.00092-14.9580895 10.048176-24.648013 3.995788-4.812127-4.680918-2.775151-4.680918-2.775151-4.758388 3.170385-7.083716 6.891666-8.283299 9.491698-.807389 5.009136-4.539292 9.197401-4.891541 5.5600315 0 0-1.355736-6.2896945-5.424152-18.5164125-.403089-3.6239925-2.147387-16.157169-2.520214-25.7230495-.265095-6.2240246-5.688036-6.5985849-6.140755-.2809202l-.654868 25.0456792-1.296422-28.9262698c-.550767-8.1868178-6.715731-6.9731451-6.983247-.1884962l-.265094 30.1192685-1.123324-29.196245c-1.6704595-5.5770568-6.059652-2.2716838-6.140754 3.769925l-.7480755 28.408209s-.945383-15.557629-1.158427-22.1270275c-.2009395-3.9511246-4.8068075-3.6592594-5.241369 1.9895475-.6270275 8.1697925-1.613567 14.8376955-2.0759695 23.303001z"/><path d="m99.797429 21.5 6.953171-21.5 6.953171 21.5-18.203771-13.2867878h22.5z"/><path d="m154.203771 30.5-18.203771-13.2879935h22.5l-18.203771 13.2879935 6.953171-21.5z"/><path d="m188.703771 56-18.203771-13.2879935h22.5l-18.203771 13.2879935 6.953171-21.5z"/><path d="m209.203771 92.5-18.203771-13.2879935h22.5l-18.202571 13.2879935 6.953171-21.5z"/><path d="m59.2972 30.5 18.2028-13.2879935h-22.5l18.2028 13.2879935-6.9528-21.5z"/><path d="m24.2962292 56 18.2037708-13.2879935h-22.5l18.2037708 13.2879935-6.9543709-21.5z"/><path d="m4.2972 92.5 18.2028-13.2879935h-22.5l18.2028 13.2879935-6.9528-21.5z"/></g></g></g></svg>