<svg viewBox="0 0 512 512" xmlns="http://www.w3.org/2000/svg"><g fill="none"><circle cx="256" cy="256" fill="#f3f2f0" r="256"/><path d="m255.504963 0c19.418412 0 38.327322 2.20101506 56.495037 6.36927435v499.26145165c-18.167715 4.168259-37.076625 6.369274-56.495037 6.369274-19.065928 0-37.640684-2.121835-55.504963-6.144233v-499.71153358c17.864279-4.02239885 36.439035-6.14423342 55.504963-6.14423342z" fill="#da1c4b"/><path d="m505.855767 200c4.022398 18.023544 6.144233 36.763898 6.144233 55.999804 0 19.236045-2.121865 37.976532-6.144321 56.000196h-499.71135774c-4.0224558-18.023664-6.14432126-36.764151-6.14432126-56.000196 0-19.235906 2.12183457-37.97626 6.14423342-55.999804z" fill="#233b8e"/><path d="m224 224h16v16h-16zm0 48h16v16h-16zm48-48h16v16h-16zm0 48h16v16h-16zm40-24h16v16h-16zm-128 0h16v16h-16z" fill="#f3f2f0"/></g></svg>