<svg viewBox="0 0 512 512" xmlns="http://www.w3.org/2000/svg"><g fill="#c2a633" fill-rule="evenodd"><path d="m262.144 168.704h-36.57728v72.11264h57.54624v30.19264h-57.54624v72.108246h38.36928c9.85856 0 80.93696 1.112874 80.827008-83.897046-.110208-85.00992-68.938368-90.51648-82.619008-90.51648z"/><path d="m256 0c-141.38624 0-256 114.61376-256 256s114.61376 256 256 256 256-114.61376 256-256-114.61376-256-256-256zm10.05824 394.2656h-92.7104v-123.25376h-32.68096v-30.19264h32.6784v-123.26144h79.56992c18.82368 0 143.50336-3.90912 143.50336 140.66688 0 146.96704-130.35776 136.04096-130.35776 136.04096z" fill-rule="nonzero"/></g></svg>