<svg viewBox="0 0 512 512" xmlns="http://www.w3.org/2000/svg"><g fill="none" fill-rule="nonzero"><circle cx="256" cy="256" fill="#b88a0e" r="256"/><path d="m256 476.000831c-88.979524 0-169.1962975-53.604901-203.246905-135.811421-34.0506075-82.206519-15.2297076-176.829973 47.686905-239.74941 55.450515-56.1986026 136.762821-78.3759235 213.067745-58.1126278 76.304924 20.2632956 135.901587 79.8599588 156.164883 156.1648828 20.263295 76.304924-1.914025 157.61723-58.112628 213.067745-41.164296 41.39632-97.18082 64.600902-155.56 64.440831z" fill="#d4af37"/><g fill="#ffe8a3"><path d="m234.61 317.46-6.84-19.94h-58.22l-6.83 20.38c-2.666667 7.953333-4.946667 13.316667-6.84 16.09s-4.986667 4.166667-9.28 4.18c-3.710727-.035178-7.22954-1.654488-9.67-4.45-2.680153-2.670872-4.190731-6.29626-4.2-10.08.022841-2.275318.359344-4.536618 1-6.72.666667-2.306667 1.743333-5.523333 3.23-9.65l36.63-103.19c1-3 2.29-6.52 3.76-10.68 1.196356-3.598236 2.754317-7.065955 4.65-10.35 1.622936-2.708403 3.864061-4.994076 6.54-6.67 3.022907-1.783924 6.491966-2.668534 10-2.55 3.543958-.129032 7.051186.75558 10.11 2.55 2.65962 1.652777 4.901283 3.897861 6.55 6.56 1.685387 2.725294 3.092465 5.613154 4.2 8.62 1.14 3.066667 2.59 7.166667 4.35 12.3l37.41 102.55c2.933333 7.8 4.396667 13.466667 4.390023 17-.036271 3.786231-1.521328 7.41478-4.150023 10.14-2.485793 2.942222-6.148324 4.630649-10 4.61-2.037482.05513-4.055067-.413115-5.86-1.36-1.628766-.898871-3.031008-2.157468-4.1-3.68-1.459311-2.242625-2.657108-4.644929-3.57-7.16-1.246667-3.206667-2.333333-6.04-3.26-8.5zm-57.44-44.12h42.83l-21.59-65.58z"/><path d="m354.27 321.47v-3.79c-2.891436 4.162822-6.272306 7.963363-10.07 11.32-3.38 2.963597-7.288188 5.263729-11.52 6.78-4.591921 1.547921-9.414838 2.298754-14.26 2.22-6.074553.099151-12.063892-1.437905-17.34-4.45-5.032337-2.878249-9.147526-7.121713-11.87-12.24-3.333333-6.286667-5-15.32-5-27.1v-58.7c0-5.92 1.203333-10.346667 3.61-13.28 2.327276-2.885882 5.874628-4.511444 9.58-4.39 3.768694-.116965 7.376835 1.52814 9.76 4.45 2.48 2.96 3.72 7.366667 3.72 13.22v47.37c-.101359 5.802594.421649 11.59926 1.56 17.29.757251 4.122739 2.711897 7.931169 5.62 10.95 2.7 2.666667 6.366667 4 11 4 4.609345-.03585 9.076345-1.601058 12.7-4.45 3.958552-2.946186 6.980056-6.974858 8.7-11.6 1.493333-4.186667 2.24-13.363333 2.24-27.53v-36c0-5.846667 1.236667-10.253333 3.71-13.22 2.353089-2.91005 5.929111-4.555686 9.67-4.45 3.705372-.121444 7.252724 1.504118 9.58 4.39 2.406667 2.933333 3.61 7.36 3.61 13.28v85.75c0 5.626667-1.156667 9.853333-3.47 12.68-2.140248 2.742844-5.451896 4.31152-8.93 4.23-3.524262.037079-6.859671-1.58986-9-4.39-2.406667-2.946667-3.606667-7.06-3.6-12.34z"/></g></g></svg>