<svg height="800" preserveAspectRatio="xMidYMid meet" viewBox="0 0 64 64" width="800" xmlns="http://www.w3.org/2000/svg"><g fill="#2a5f9e"><path d="m32 2v30h-30c0 16.6 13.4 30 30 30s30-13.4 30-30-13.4-30-30-30z"/><path d="m12 12h21v21h-21z"/></g><g fill="#fff"><path d="m18.9 8.1v5.9h-7.3l14.4 18h6v-7.5z"/><path d="m11 18.9h-6c-1.9 4-3 8.4-3 13.1h12v-18.1h-3z"/></g><path d="m32 27.1-13-16.1h-6l17 21h2z" fill="#ed4c5c"/><path d="m18.9 5v6h-7.9v3h21v-12c-4.7 0-9.1 1.1-13.1 3z" fill="#fff"/><path d="m32 5h-13.1c-6 2.9-11 7.9-13.9 13.9v13.1h6v-21h21z" fill="#ed4c5c"/><g fill="#fff"><path d="m15.3 35.6 1.1 4.4 4.1-1.9-2.7 3.6 4 2.1-4.5.1.9 4.4-2.9-3.4-2.9 3.4.9-4.4-4.5-.1 4-2.1-2.7-3.6 4.1 1.9z"/><path d="m48.2 18.7.5 1.9 1.7-.8-1.1 1.5 1.7.9h-2l.4 1.9-1.2-1.5-1.2 1.5.4-1.9h-2l1.7-.9-1.1-1.5 1.7.8z"/><path d="m56.5 26.3.5 1.9 1.7-.8-1.1 1.5 1.7.9h-1.9l.3 1.9-1.2-1.5-1.2 1.5.4-1.9h-1.9l1.7-.9-1.2-1.5 1.7.8z"/><path d="m38.8 28.8.5 1.9 1.8-.8-1.2 1.5 1.7.9h-1.9l.4 1.9-1.3-1.5-1.2 1.5.4-1.9h-1.9l1.7-.9-1.2-1.5 1.8.8z"/><path d="m48.2 43.6.5 1.9 1.7-.8-1.1 1.5 1.7.9-2 .1.4 1.8-1.2-1.4-1.2 1.4.4-1.8-2-.1 1.7-.9-1.1-1.5 1.7.8z"/><path d="m51.9 34 .4 1.1h1.1l-.9.6.4 1.1-1-.7-.9.7.4-1.1-.9-.6h1.1z"/></g></svg>