<svg viewBox="0 0 512 512" xmlns="http://www.w3.org/2000/svg"><g fill="none"><circle cx="256" cy="256" fill="#00bfff" r="256"/><g fill="#fff" transform="translate(95 37)"><path d="m106.686214 197.002735s-8.7062265-49.272917-10.1572642-60.866545-14.5103773-69.5617664-15.961415-79.7061907c-1.4510377-10.1444242-5.8041509-24.6364589-18.8634905-26.0856623-13.0593395-1.4492035-18.8634904 1.4492034-23.2166036 13.0428312-4.3531132 11.5936277 21.7655659 117.3854808 26.1186791 128.9791078 4.3531132 11.593628 13.0593395 44.925308 15.961415 49.272918 2.9020754 4.347611 8.7062264 11.593628 18.8634905 8.695221 10.1572637-2.898407 11.6083017-11.593628 7.2551887-33.33168z"/><path d="m141.757416.13312743c12.985759-1.30184287 20.200149 7.23246613 21.643027 13.01843637 1.442879 5.7859702 8.657269 101.2544792 8.657269 127.2913452s2.885757 63.645673-1.442878 70.878136c-4.328634 7.232462-5.771512 8.678955-14.428781 8.678955s-12.985759-8.678955-14.428637-18.804403c-1.688168-11.80338-4.328635-23.143881-7.214391-49.180747-.505007-4.541987-11.543025-120.0588829-11.543025-130.1843308 0-10.125448 4.328634-20.25089588 18.757416-21.69739177z"/><path d="m234.222222 26.0563295c15.888889-1.0588448 18.777778 13.0542504 18.777778 21.757084 0 5.8018891-5.777778 50.7665295-7.222222 60.9198355-1.444445 10.153306-10.255556 59.150259-11.555556 69.622669-1.444444 11.603778-6.008889 33.810509-8.666666 39.162751-1.444445 2.900945-5.777778 8.702834-13 7.252362-7.222223-1.450473-11.555556-1.450473-11.555556-14.504723s5.777778-79.775975 5.777778-87.028336c0-7.252362 5.777778-53.6674744 7.222222-59.4693635s-1.444444-36.2618068 20.222222-37.712279z"/><path d="m307.218898 81.079226c11.609421.973627 15.962954 10.1722225 14.511776 15.9849211-1.451177 5.8126989-8.707065 34.8761909-11.60942 45.0484139-2.902356 10.172222-20.316486 68.299208-21.767664 71.205557-1.451178 2.90635-7.255888 20.344445-8.707065 23.250795-1.291549 2.601182-7.255888 4.359523-11.609421 2.906349-4.353533-1.453175-10.158243-2.906349-7.255888-17.438096 2.902355-14.531746 8.707066-43.595239 10.158243-49.407938 1.451178-5.812698 11.609421-53.767461 15.962953-63.939684 4.353533-10.1722223 2.902356-29.0634926 20.316486-27.610318z"/><path d="m.01328408 189.369573c-.04180056-.4488.01533275-.901943.16737292-1.326131.15203988-.424188.39528632-.810734.71259505-1.130685.31730728-.319951.70096055-.567514 1.12390284-.722423.4229423-.156356.87489487-.217161 1.32399706-.179519 13.74547275 1.317444 27.59227155 6.022601 35.44891925 27.376776 10.128275 27.507073-.5064138 109.159648 15.1924125 132.468273 23.8737912 35.469647 51.3648233 55.738017 109.2406803 55.738017 73.791719 0 106.346888-26.783203 106.346888-76.006386 0-49.223184-50.641375-50.670925-60.76965-49.223184s-19.750136 5.790963-18.809654 23.163851c.911545 16.822747 25.812633 14.216814 27.491033 4.343222 1.244331-7.238703-4.34069-10.134185 1.446896-13.029666s17.362757 2.895481 17.362757 17.372888-2.893793 59.357369-57.875857 60.805109c-54.982064 1.447741-57.456257-46.327702-57.875857-53.566405-.723449-12.305796 8.681378-33.298036 4.340689-34.745777-4.340689-1.44774-10.735972-3.590397-27.4910323 11.581926-15.1924125 13.753536-25.3206876 18.096758-30.3848251 13.029666-5.7875857-5.790963-8.6813786-13.029666-2.8937929-18.820629 5.7875858-5.790963 39.0662033-41.98448 88.2606823-47.775443s103.264999 5.240821 133.114472 37.641258c34.002066 36.917388 19.706729 130.180843-53.535168 152.012773-109.240681 32.574165-213.4172239-12.305796-222.82200732-99.894108-4.9917927-46.61725-4.26834448-79.857377-9.1154536-139.113403z"/></g></g></svg>