<svg viewBox="0 0 512 512" xmlns="http://www.w3.org/2000/svg"><path d="m511 255.498448c0 141.109477-114.389666 255.501552-255.498448 255.501552-141.110334 0-255.501552-114.392075-255.501552-255.501552 0-141.107925 114.391218-255.498448 255.501552-255.498448 141.10723 0 255.498448 114.390523 255.498448 255.498448" fill="#bebebe"/><path d="m456.75473 255.501552c0 111.142221-90.104074 201.253508-201.253178 201.253508-111.147552 0-201.2578344-90.111287-201.2578344-201.253508 0-111.151533 90.1102824-201.2566119 201.2578344-201.2566119 111.150656 0 201.253178 90.1035269 201.253178 201.2566119" fill="#bebebe"/><path d="m240.568273 323.753146 16.595464-62.489078 39.290262-14.354299 9.772902-36.724594-.333679-.911014-38.675673 14.129261 27.86604-104.926526h-79.029051l-36.442354 136.931537-30.426829 11.115308-10.053812 37.860647 30.403548-11.105997-21.478035 80.700057h210.327683l13.483718-50.225302z" fill="#fff"/></svg>