<svg viewBox="0 0 512 512" xmlns="http://www.w3.org/2000/svg"><g fill="none" fill-rule="nonzero"><circle cx="256" cy="256" fill="#f3f4f6" r="256"/><path d="m256 476.000831c-88.979524 0-169.1962975-53.604901-203.246905-135.811421-34.0506075-82.206519-15.2297076-176.829973 47.686905-239.74941 55.450515-56.1986026 136.762821-78.3759235 213.067745-58.1126278 76.304924 20.2632956 135.901587 79.8599588 156.164883 156.1648828 20.263295 76.304924-1.914025 157.61723-58.112628 213.067745-41.164296 41.39632-97.18082 64.600902-155.56 64.440831z" fill="#d1d5db"/><g fill="#7d8793"><path d="m215.27 272.21h-26.57v45c0 6.433333-1.366667 11.31-4.1 14.63-2.554913 3.145994-6.388026 4.977737-10.440769 4.989422-4.052744.011573-7.896305-1.798142-10.469231-4.929422-2.666667-3.293333-4-8.116667-4-14.47v-122.51c0-7.08 1.463333-12.14 4.39-15.18s7.593333-4.556667 14-4.550022h37.22c11 0 19.463333.940022 25.39 2.820022 5.721261 1.716954 10.935989 4.806655 15.19 9 4.357792 4.336323 7.680386 9.600516 9.72 15.4 2.300964 6.578679 3.424811 13.511322 3.32 20.48 0 16.186667-4.493333 28.456667-13.48 36.81s-22.376667 12.523333-40.17 12.51zm-7-72.85h-19.57v48.56h19.53c6.84 0 12.556667-.793333 17.15-2.38 4.276759-1.352248 7.974808-4.102892 10.5-7.81 2.413333-3.606667 3.616667-8.34 3.610028-14.2 0-7-1.856695-12.706667-5.570028-17.12-4.16-4.7-12.723333-7.05-25.69-7.05z"/><path d="m292.73 219.09h2.93v-17.78c0-4.773333.113333-8.513333.34-11.22.151782-2.438086.798238-4.819766 1.9-7 1.03876-2.011581 2.591304-3.712479 4.5-4.93 1.945883-1.262338 4.220643-1.923201 6.54-1.900591 3.518761.056606 6.851187 1.592136 9.18 4.230591 1.830587 1.886253 3.041278 4.286702 3.47 6.88.565503 3.822853.80969 7.686368.73 11.55v20.16h9.77c3.78 0 6.663333 1 8.65 3 2.006159 2.027008 3.09092 4.789532 3 7.64 0 4-1.416667 6.783333-4.25 8.35s-6.886667 2.36-12.16 2.38h-5v54.42c-.046236 3.565333.100645 7.130553.44 10.68.185219 2.206782 1.000949 4.313796 2.35 6.07 1.27 1.55 3.33 2.33 6.2 2.33 2.143221-.081509 4.271772-.389898 6.35-.92 2.044336-.529799 4.139713-.838239 6.25-.92 2.264877.054129 4.390644 1.104207 5.81 2.87 1.741509 1.947182 2.668676 4.488835 2.59 7.1 0 4.766667-2.333333 8.416667-7 10.95s-11.406667 3.796667-20.22 3.790026c-8.34 0-14.656667-1.553359-18.95-4.660026-4.305912-3.11578-7.313907-7.707866-8.45-12.9-1.333333-5.493333-2-12.826667-2-22v-56.82h-3.52c-3.84 0-6.77-1-8.79-3-2.016495-2.044799-3.101623-4.82996-3-7.7-.09289-2.88637 1.066562-5.671971 3.18-7.64 2.066667-2.006667 5.12-3.01 9.16-3.01z"/></g></g></svg>