<svg viewBox="0 0 512 512" xmlns="http://www.w3.org/2000/svg"><g fill="none" fill-rule="nonzero"><circle cx="256" cy="256" fill="#f1f3f6" r="256"/><path d="m256 476.000831c-88.979524 0-169.1962975-53.604901-203.246905-135.811421-34.0506075-82.206519-15.2297076-176.829973 47.686905-239.74941 55.450515-56.1986026 136.762821-78.3759235 213.067745-58.1126278 76.304924 20.2632956 135.901587 79.8599588 156.164883 156.1648828 20.263295 76.304924-1.914025 157.61723-58.112628 213.067745-41.164296 41.39632-97.18082 64.600902-155.56 64.440831z" fill="#c8ccd4"/><g fill="#7b8aa0"><path d="m232.7 295.51-6.83-19.94h-58.22l-6.84 20.37c-2.666667 7.96-4.946667 13.326667-6.84 16.1s-4.986667 4.166667-9.28 4.18c-3.710727-.035178-7.22954-1.654488-9.67-4.45-2.680153-2.670872-4.190731-6.29626-4.2-10.08.023223-2.275288.359718-4.536536 1-6.72.666667-2.313333 1.74-5.53 3.22-9.65l36.63-103.19c1-3 2.3-6.52 3.76-10.68 1.211365-3.598914 2.782651-7.066464 4.69-10.35 1.622728-2.711895 3.868009-4.998311 6.55-6.67 3.022907-1.783924 6.491966-2.668534 10-2.55 3.543958-.129032 7.051186.75558 10.11 2.55 2.654406 1.655968 4.892145 3.90055 6.54 6.56 1.685387 2.725294 3.092465 5.613154 4.2 8.62 1.14 3.066667 2.59 7.166667 4.35 12.3l37.41 102.54c2.926667 7.806667 4.393333 13.473333 4.4 17-.041308 3.785209-1.52563 7.411962-4.15 10.14-2.485793 2.942222-6.148324 4.63-10 4.61-2.037392.054237-4.054755-.413956-5.86-1.36-1.626732-.90173-3.028384-2.159798-4.1-3.68-1.462784-2.240636-2.660787-4.643352-3.57-7.16-1.29-3.19-2.39-6-3.3-8.49zm-57.43-44.12h42.78l-21.59-65.58z"/><path d="m381.18 217.57v86c.14795 8.543594-.80659 17.070595-2.84 25.37-1.581299 6.494317-4.694781 12.515546-9.08 17.56-4.456699 4.807428-10.098414 8.359364-16.36 10.3-6.74 2.24-15.123333 3.36-25.15 3.36-8.403056.137603-16.756385-1.314559-24.62-4.28-7.233333-2.86-12.8-6.546667-16.7-11.06s-5.853333-9.156667-5.86-13.93c-.135826-3.271652 1.062318-6.458285 3.32-8.83 2.065589-2.216395 4.970544-3.458263 8-3.42 3.9 0 7.316667 1.916667 10.25 5.75 1.44 1.95 2.92 3.91 4.45 5.9 1.458112 1.919118 3.166626 3.634358 5.08 5.1 2.000698 1.478294 4.274482 2.545511 6.69 3.14 2.944433.719435 5.969458 1.055549 9 1 6.906667 0 12.263333-1.066667 16.07-3.2 3.6378-1.942948 6.471464-5.109567 8-8.94 1.553385-3.928327 2.46176-8.081864 2.69-12.3.26-4.373333.456667-11.403333.59-21.09-3.593756 5.845806-8.453044 10.811029-14.22 14.53-5.373333 3.333333-11.77 5-19.19 5-8.429594.159924-16.669162-2.512653-23.4-7.59-6.666667-5.06-11.793333-12.143333-15.38-21.25s-5.37672-19.62-5.37-31.54c-.103921-8.140748.998027-16.252026 3.27-24.07 1.888701-6.588481 5.059296-12.739369 9.33-18.1 7.560162-9.570862 19.155249-15.063271 31.35-14.85 7.56 0 14.106667 1.606667 19.64 4.82s10.676667 8.256667 15.43 15.13v-4c0-5.126667 1.14-9.1 3.42-11.92 2.090051-2.728284 5.353854-4.298919 8.79-4.23 5.14 0 8.56 1.863333 10.26 5.59s2.546667 9.076667 2.54 16.05zm-77.27 37.51c0 12 2.36 21.07 7.08 27.21s10.826667 9.21 18.32 9.21c4.492166-.029845 8.869078-1.424876 12.55-4 3.94-2.626667 7.146667-6.6 9.62-11.92s3.71-11.77 3.71-19.35c0-12.066667-2.393333-21.46-7.18-28.18s-11.086667-10.07-18.9-10.050089c-7.62 0-13.723333 3.213422-18.31 9.640089s-6.883333 15.573333-6.89 27.44z"/></g></g></svg>