<svg viewBox="0 0 512 512" xmlns="http://www.w3.org/2000/svg"><g fill="none" fill-rule="evenodd"><circle cx="256" cy="256" fill="#009393" r="256"/><path d="m256.3136 274.2976c44.0256 0 80.8192-7.4432 89.8112-17.3888-7.6352-8.4352-35.2512-15.0784-70.3232-16.896v21.0112c-6.2784.3264-12.8064.4864-19.4944.4864s-13.216-.16-19.5072-.4864v-21.0112c-35.0592 1.8176-62.688 8.4608-70.3232 16.896 9.0048 9.9456 45.8048 17.3888 89.8304 17.3888zm78.2208-98.8992v28.9344h-58.7328v20.064c41.2544 2.144 72.2112 10.9632 72.4416 21.5168v22.0032c-.2304 10.5536-31.1872 19.3536-72.4416 21.504v49.2416h-38.9952v-49.2416c-41.2544-2.144-72.1984-10.9504-72.4288-21.504v-22.0032c.2304-10.5536 31.1744-19.3728 72.4288-21.5168v-20.064h-58.7328v-28.9344h156.4672zm-179.5584-46.048h206.1824c4.928 0 9.4656 2.592 11.9232 6.8032l60.064 103.1424c3.1104 5.3504 2.1888 12.1024-2.2528 16.4352l-165.3376 161.3952c-5.3632 5.2288-13.9776 5.2288-19.328 0l-165.1328-161.1776c-4.5376-4.4416-5.3952-11.3856-2.048-16.7616l64.2112-103.3536c2.5024-4.0192 6.944-6.4768 11.7248-6.4768z" fill="#fff"/></g></svg>