<svg viewBox="0 0 512 512" xmlns="http://www.w3.org/2000/svg"><g fill="none"><circle cx="256" cy="256" fill="#ad0017" r="256"/><g fill="#fff" transform="translate(45.5449 178.6602)"><path d="m140.507812 158.339844h-40.175781l-30.0781248-53.925782-31.796875 53.925782h-38.4570312l50.9179688-80.6738284-48.44726568-77.6660156h39.53124998l28.2519531 51.4550781 29.0039063-51.4550781h38.2421875l-48.4472656 76.3769531z"/><path d="m227.197266 101.40625h-33.623047v56.933594h-32.871094v-158.339844h68.964844c15.898437 0 28.574219 4.08203125 38.027343 12.2460938 9.453126 8.1640624 14.179688 20.8040364 14.179688 37.9199218 0 18.6914063-4.726562 31.9042969-14.179688 39.6386719-9.453124 7.734375-22.952473 11.6015625-40.498046 11.6015625zm15.46875-32.9785156c4.296875-3.7955729 6.445312-9.8111979 6.445312-18.046875s-2.166341-14.1080729-6.499023-17.6171875c-4.332683-3.5091146-10.402019-5.2636719-18.208008-5.2636719h-30.830078v46.6210938h30.830078c7.805989 0 13.893229-1.8977865 18.261719-5.6933594z"/><path d="m418.945312 28.0371094h-79.384765v36.4160156h69.501953v27.5h-69.501953v66.386719h-32.871094v-158.12500025h112.255859z"/></g></g></svg>